<?xml version="1.0" standalone="no"?><!DOCTYPE svg PUBLIC "-//W3C//DTD SVG 1.1//EN" "http://www.w3.org/Graphics/SVG/1.1/DTD/svg11.dtd"><svg height="505" node-id="1" sillyvg="true" template-height="505" template-width="600" version="1.1" viewBox="0 0 600 505" width="600" xmlns="http://www.w3.org/2000/svg" xmlns:xlink="http://www.w3.org/1999/xlink"><defs node-id="122"><mask height="313.95126" id="mask-2" maskUnits="userSpaceOnUse" node-id="19" width="168.49176" x="43.739834" y="124.4144"><path d="M 85.00 150.60 L 198.20 150.60 L 198.20 379.10 L 85.00 379.10 Z" fill="#ffffff" fill-rule="evenodd" node-id="127" stroke="none" target-height="228.5" target-width="113.2" target-x="85" target-y="150.6"></path></mask><mask height="278.45135" id="mask-4" maskUnits="userSpaceOnUse" node-id="24" width="153.50256" x="45.30252" y="146.6693"><path d="M 85.00 169.90 L 186.00 169.90 L 186.00 379.10 L 85.00 379.10 Z" fill="#ffffff" fill-rule="evenodd" node-id="134" stroke="none" target-height="209.20001" target-width="101" target-x="85" target-y="169.9"></path></mask><mask height="204.45462" id="mask-6" maskUnits="userSpaceOnUse" node-id="28" width="134.24086" x="139.86424" y="195.52435"><path d="M 85.00 379.10 L 533.30 379.10 L 533.30 117.70 L 85.00 117.70 Z" fill="#ffffff" fill-rule="evenodd" node-id="141" stroke="none" target-height="261.40002" target-width="448.3" target-x="85" target-y="117.7"></path></mask><mask height="20.815338" id="mask1" maskUnits="userSpaceOnUse" node-id="145" width="103.01155" x="156.0616" y="226.24664"><path d="M 85.00 379.10 L 533.30 379.10 L 533.30 117.70 L 85.00 117.70 Z" fill="#ffffff" fill-rule="evenodd" node-id="149" stroke="none" target-height="261.40002" target-width="448.3" target-x="85" target-y="117.7"></path></mask><mask height="20.815338" id="mask2" maskUnits="userSpaceOnUse" node-id="153" width="103.01155" x="156.0616" y="260.36102"><path d="M 85.00 379.10 L 533.30 379.10 L 533.30 117.70 L 85.00 117.70 Z" fill="#ffffff" fill-rule="evenodd" node-id="157" stroke="none" target-height="261.40002" target-width="448.3" target-x="85" target-y="117.7"></path></mask><mask height="20.815338" id="mask3" maskUnits="userSpaceOnUse" node-id="161" width="103.01155" x="156.0616" y="294.47543"><path d="M 85.00 379.10 L 533.30 379.10 L 533.30 117.70 L 85.00 117.70 Z" fill="#ffffff" fill-rule="evenodd" node-id="165" stroke="none" target-height="261.40002" target-width="448.3" target-x="85" target-y="117.7"></path></mask><mask height="20.815857" id="mask4" maskUnits="userSpaceOnUse" node-id="169" width="103.01155" x="156.0616" y="328.58936"><path d="M 85.00 379.10 L 533.30 379.10 L 533.30 117.70 L 85.00 117.70 Z" fill="#ffffff" fill-rule="evenodd" node-id="173" stroke="none" target-height="261.40002" target-width="448.3" target-x="85" target-y="117.7"></path></mask><mask height="20.815369" id="mask5" maskUnits="userSpaceOnUse" node-id="177" width="103.01155" x="156.0616" y="362.7038"><path d="M 85.00 379.10 L 533.30 379.10 L 533.30 117.70 L 85.00 117.70 Z" fill="#ffffff" fill-rule="evenodd" node-id="181" stroke="none" target-height="261.40002" target-width="448.3" target-x="85" target-y="117.7"></path></mask><mask height="241.00024" id="mask6" maskUnits="userSpaceOnUse" node-id="185" width="129.34018" x="410.55313" y="166.91895"><path d="M 85.00 379.10 L 533.30 379.10 L 533.30 117.70 L 85.00 117.70 Z" fill="#ffffff" fill-rule="evenodd" node-id="189" stroke="none" target-height="261.40002" target-width="448.3" target-x="85" target-y="117.7"></path></mask><mask height="213.74867" id="mask7" maskUnits="userSpaceOnUse" node-id="193" width="117.83386" x="420.85968" y="184.00294"><path d="M 85.00 379.10 L 533.30 379.10 L 533.30 117.70 L 85.00 117.70 Z" fill="#ffffff" fill-rule="evenodd" node-id="197" stroke="none" target-height="261.40002" target-width="448.3" target-x="85" target-y="117.7"></path></mask><mask height="113.739746" id="mask8" maskUnits="userSpaceOnUse" node-id="201" width="189.05652" x="60.815372" y="281.30563"><path d="M 85.00 379.10 L 533.30 379.10 L 533.30 117.70 L 85.00 117.70 Z" fill="#ffffff" fill-rule="evenodd" node-id="205" stroke="none" target-height="261.40002" target-width="448.3" target-x="85" target-y="117.7"></path></mask><mask height="94.10425" id="mask9" maskUnits="userSpaceOnUse" node-id="209" width="156.418" x="75.4567" y="299.30484"><path d="M 85.00 379.10 L 533.30 379.10 L 533.30 117.70 L 85.00 117.70 Z" fill="#ffffff" fill-rule="evenodd" node-id="213" stroke="none" target-height="261.40002" target-width="448.3" target-x="85" target-y="117.7"></path></mask><mask height="113.739746" id="mask10" maskUnits="userSpaceOnUse" node-id="217" width="189.05658" x="333.492" y="281.30563"><path d="M 85.00 379.10 L 533.30 379.10 L 533.30 117.70 L 85.00 117.70 Z" fill="#ffffff" fill-rule="evenodd" node-id="221" stroke="none" target-height="261.40002" target-width="448.3" target-x="85" target-y="117.7"></path></mask><mask height="94.10425" id="mask11" maskUnits="userSpaceOnUse" node-id="225" width="156.418" x="348.1333" y="299.30484"><path d="M 85.00 379.10 L 533.30 379.10 L 533.30 117.70 L 85.00 117.70 Z" fill="#ffffff" fill-rule="evenodd" node-id="229" stroke="none" target-height="261.40002" target-width="448.3" target-x="85" target-y="117.7"></path></mask><mask height="74.59088" id="mask12" maskUnits="userSpaceOnUse" node-id="233" width="90.83029" x="471.61905" y="128.60754"><path d="M 85.00 379.10 L 533.30 379.10 L 533.30 117.70 L 85.00 117.70 Z" fill="#ffffff" fill-rule="evenodd" node-id="237" stroke="none" target-height="261.40002" target-width="448.3" target-x="85" target-y="117.7"></path></mask><mask height="82.56442" id="mask13" maskUnits="userSpaceOnUse" node-id="241" width="77.604065" x="508.66522" y="143.32292"><path d="M 85.00 379.10 L 533.30 379.10 L 533.30 117.70 L 85.00 117.70 Z" fill="#ffffff" fill-rule="evenodd" node-id="245" stroke="none" target-height="261.40002" target-width="448.3" target-x="85" target-y="117.7"></path></mask><mask height="13.958542" id="mask14" maskUnits="userSpaceOnUse" node-id="249" width="14.065552" x="492.56085" y="137.50856"><path d="M 85.00 379.10 L 533.30 379.10 L 533.30 117.70 L 85.00 117.70 Z" fill="#ffffff" fill-rule="evenodd" node-id="253" stroke="none" target-height="261.40002" target-width="448.3" target-x="85" target-y="117.7"></path></mask><mask height="20.253815" id="mask15" maskUnits="userSpaceOnUse" node-id="257" width="7.458008" x="490.5633" y="149.41013"><path d="M 85.00 379.10 L 533.30 379.10 L 533.30 117.70 L 85.00 117.70 Z" fill="#ffffff" fill-rule="evenodd" node-id="261" stroke="none" target-height="261.40002" target-width="448.3" target-x="85" target-y="117.7"></path></mask><mask height="21.384232" id="mask16" maskUnits="userSpaceOnUse" node-id="265" width="9.195801" x="487.33054" y="148.49164"><path d="M 85.00 379.10 L 533.30 379.10 L 533.30 117.70 L 85.00 117.70 Z" fill="#ffffff" fill-rule="evenodd" node-id="269" stroke="none" target-height="261.40002" target-width="448.3" target-x="85" target-y="117.7"></path></mask><mask height="147.09625" id="mask17" maskUnits="userSpaceOnUse" node-id="273" width="65.25604" x="487.4301" y="248.10284"><path d="M 85.00 379.10 L 533.30 379.10 L 533.30 117.70 L 85.00 117.70 Z" fill="#ffffff" fill-rule="evenodd" node-id="277" stroke="none" target-height="261.40002" target-width="448.3" target-x="85" target-y="117.7"></path></mask><mask height="20.815338" id="mask18" maskUnits="userSpaceOnUse" node-id="281" width="27.501099" x="506.17792" y="269.48386"><path d="M 85.00 379.10 L 533.30 379.10 L 533.30 117.70 L 85.00 117.70 Z" fill="#ffffff" fill-rule="evenodd" node-id="285" stroke="none" target-height="261.40002" target-width="448.3" target-x="85" target-y="117.7"></path></mask><mask height="20.815857" id="mask19" maskUnits="userSpaceOnUse" node-id="289" width="27.501099" x="506.17792" y="300.83542"><path d="M 85.00 379.10 L 533.30 379.10 L 533.30 117.70 L 85.00 117.70 Z" fill="#ffffff" fill-rule="evenodd" node-id="293" stroke="none" target-height="261.40002" target-width="448.3" target-x="85" target-y="117.7"></path></mask><mask height="20.815338" id="mask20" maskUnits="userSpaceOnUse" node-id="297" width="27.501099" x="506.17792" y="332.18747"><path d="M 85.00 379.10 L 533.30 379.10 L 533.30 117.70 L 85.00 117.70 Z" fill="#ffffff" fill-rule="evenodd" node-id="301" stroke="none" target-height="261.40002" target-width="448.3" target-x="85" target-y="117.7"></path></mask><mask height="20.815857" id="mask21" maskUnits="userSpaceOnUse" node-id="305" width="27.501099" x="506.17792" y="363.53903"><path d="M 85.00 379.10 L 533.30 379.10 L 533.30 117.70 L 85.00 117.70 Z" fill="#ffffff" fill-rule="evenodd" node-id="309" stroke="none" target-height="261.40002" target-width="448.3" target-x="85" target-y="117.7"></path></mask><mask height="204.4546" id="mask22" maskUnits="userSpaceOnUse" node-id="313" width="59.66272" x="371.36774" y="184.731"><path d="M 85.00 379.10 L 533.30 379.10 L 533.30 117.70 L 85.00 117.70 Z" fill="#ffffff" fill-rule="evenodd" node-id="317" stroke="none" target-height="261.40002" target-width="448.3" target-x="85" target-y="117.7"></path></mask><mask height="102.227295" id="mask23" maskUnits="userSpaceOnUse" node-id="321" width="36.20215" x="382.25656" y="202.24384"><path d="M 85.00 379.10 L 533.30 379.10 L 533.30 117.70 L 85.00 117.70 Z" fill="#ffffff" fill-rule="evenodd" node-id="325" stroke="none" target-height="261.40002" target-width="448.3" target-x="85" target-y="117.7"></path></mask><mask height="52.27066" id="mask24" maskUnits="userSpaceOnUse" node-id="329" width="36.20163" x="383.29248" y="310.99805"><path d="M 85.00 379.10 L 533.30 379.10 L 533.30 117.70 L 85.00 117.70 Z" fill="#ffffff" fill-rule="evenodd" node-id="333" stroke="none" target-height="261.40002" target-width="448.3" target-x="85" target-y="117.7"></path></mask><mask height="8.644775" id="mask-8" maskUnits="userSpaceOnUse" node-id="59" width="544.4687" x="33.08018" y="482.71738"><path d="M 78.50 483.40 L 532.20 483.40 L 532.20 490.60 L 78.50 490.60 Z" fill="#ffffff" fill-rule="evenodd" node-id="340" stroke="none" target-height="7.200012" target-width="453.7" target-x="78.5" target-y="483.4"></path></mask><mask height="46.379833" id="mask-10" maskUnits="userSpaceOnUse" node-id="64" width="3.9266663" x="305.68143" y="6.394703"><path d="M 59.50 490.60 L 579.90 490.60 L 579.90 10.30 L 59.50 10.30 Z" fill="#ffffff" fill-rule="evenodd" node-id="347" stroke="none" target-height="480.30002" target-width="520.4" target-x="59.5" target-y="10.3"></path></mask><mask height="1.3877869" id="mask25" maskUnits="userSpaceOnUse" node-id="351" width="1.394165" x="499.63788" y="141.95517"><path d="M 59.50 490.60 L 579.90 490.60 L 579.90 10.30 L 59.50 10.30 Z" fill="#ffffff" fill-rule="evenodd" node-id="355" stroke="none" target-height="480.30002" target-width="520.4" target-x="59.5" target-y="10.3"></path></mask><mask height="46.23172" id="mask26" maskUnits="userSpaceOnUse" node-id="359" width="35.17865" x="258.23965" y="162.38722"><path d="M 59.50 490.60 L 579.90 490.60 L 579.90 10.30 L 59.50 10.30 Z" fill="#ffffff" fill-rule="evenodd" node-id="363" stroke="none" target-height="480.30002" target-width="520.4" target-x="59.5" target-y="10.3"></path></mask><mask height="47.739716" id="mask27" maskUnits="userSpaceOnUse" node-id="367" width="32.148285" x="290.77176" y="161.76936"><path d="M 59.50 490.60 L 579.90 490.60 L 579.90 10.30 L 59.50 10.30 Z" fill="#ffffff" fill-rule="evenodd" node-id="371" stroke="none" target-height="480.30002" target-width="520.4" target-x="59.5" target-y="10.3"></path></mask><mask height="46.23172" id="mask28" maskUnits="userSpaceOnUse" node-id="375" width="35.17862" x="320.49228" y="162.38722"><path d="M 59.50 490.60 L 579.90 490.60 L 579.90 10.30 L 59.50 10.30 Z" fill="#ffffff" fill-rule="evenodd" node-id="379" stroke="none" target-height="480.30002" target-width="520.4" target-x="59.5" target-y="10.3"></path></mask><mask height="188.24524" id="mask29" maskUnits="userSpaceOnUse" node-id="383" width="212.56943" x="206.41013" y="219.37201"><path d="M 59.50 490.60 L 579.90 490.60 L 579.90 10.30 L 59.50 10.30 Z" fill="#ffffff" fill-rule="evenodd" node-id="387" stroke="none" target-height="480.30002" target-width="520.4" target-x="59.5" target-y="10.3"></path></mask><mask height="188.2452" id="mask30" maskUnits="userSpaceOnUse" node-id="391" width="212.56947" x="206.64738" y="224.33372"><path d="M 59.50 490.60 L 579.90 490.60 L 579.90 10.30 L 59.50 10.30 Z" fill="#ffffff" fill-rule="evenodd" node-id="395" stroke="none" target-height="480.30002" target-width="520.4" target-x="59.5" target-y="10.3"></path></mask><mask height="88.75714" id="mask31" maskUnits="userSpaceOnUse" node-id="399" width="212.56943" x="206.64755" y="315.53113"><path d="M 59.50 490.60 L 579.90 490.60 L 579.90 10.30 L 59.50 10.30 Z" fill="#ffffff" fill-rule="evenodd" node-id="403" stroke="none" target-height="480.30002" target-width="520.4" target-x="59.5" target-y="10.3"></path></mask><mask height="68.59003" id="mask32" maskUnits="userSpaceOnUse" node-id="407" width="164.2701" x="228.66069" y="317.10864"><path d="M 59.50 490.60 L 579.90 490.60 L 579.90 10.30 L 59.50 10.30 Z" fill="#ffffff" fill-rule="evenodd" node-id="411" stroke="none" target-height="480.30002" target-width="520.4" target-x="59.5" target-y="10.3"></path></mask><mask height="91.19183" id="mask33" maskUnits="userSpaceOnUse" node-id="415" width="13.65625" x="303.21838" y="382.47156"><path d="M 59.50 490.60 L 579.90 490.60 L 579.90 10.30 L 59.50 10.30 Z" fill="#ffffff" fill-rule="evenodd" node-id="419" stroke="none" target-height="480.30002" target-width="520.4" target-x="59.5" target-y="10.3"></path></mask><mask height="11.770386" id="mask34" maskUnits="userSpaceOnUse" node-id="423" width="13.65625" x="303.21838" y="389.08997"><path d="M 59.50 490.60 L 579.90 490.60 L 579.90 10.30 L 59.50 10.30 Z" fill="#ffffff" fill-rule="evenodd" node-id="427" stroke="none" target-height="480.30002" target-width="520.4" target-x="59.5" target-y="10.3"></path></mask><mask height="15.71759" id="mask35" maskUnits="userSpaceOnUse" node-id="431" width="97.3009" x="261.3962" y="463.10272"><path d="M 59.50 490.60 L 579.90 490.60 L 579.90 10.30 L 59.50 10.30 Z" fill="#ffffff" fill-rule="evenodd" node-id="435" stroke="none" target-height="480.30002" target-width="520.4" target-x="59.5" target-y="10.3"></path></mask><mask height="16.163452" id="mask36" maskUnits="userSpaceOnUse" node-id="439" width="16.237183" x="275.74576" y="469.0664"><path d="M 59.50 490.60 L 579.90 490.60 L 579.90 10.30 L 59.50 10.30 Z" fill="#ffffff" fill-rule="evenodd" node-id="443" stroke="none" target-height="480.30002" target-width="520.4" target-x="59.5" target-y="10.3"></path></mask><mask height="8.481445" id="mask37" maskUnits="userSpaceOnUse" node-id="447" width="8.520355" x="279.60425" y="472.9076"><path d="M 59.50 490.60 L 579.90 490.60 L 579.90 10.30 L 59.50 10.30 Z" fill="#ffffff" fill-rule="evenodd" node-id="451" stroke="none" target-height="480.30002" target-width="520.4" target-x="59.5" target-y="10.3"></path></mask><mask height="16.163452" id="mask38" maskUnits="userSpaceOnUse" node-id="455" width="16.237213" x="328.41296" y="469.0664"><path d="M 59.50 490.60 L 579.90 490.60 L 579.90 10.30 L 59.50 10.30 Z" fill="#ffffff" fill-rule="evenodd" node-id="459" stroke="none" target-height="480.30002" target-width="520.4" target-x="59.5" target-y="10.3"></path></mask><mask height="8.481445" id="mask39" maskUnits="userSpaceOnUse" node-id="463" width="8.520874" x="332.27097" y="472.9076"><path d="M 59.50 490.60 L 579.90 490.60 L 579.90 10.30 L 59.50 10.30 Z" fill="#ffffff" fill-rule="evenodd" node-id="467" stroke="none" target-height="480.30002" target-width="520.4" target-x="59.5" target-y="10.3"></path></mask><mask height="4.724365" id="mask40" maskUnits="userSpaceOnUse" node-id="471" width="77.95752" x="548.5442" y="940.3722"><path d="M 336.80 961.00 L 857.20 961.00 L 857.20 480.60 L 336.80 480.60 Z" fill="#ffffff" fill-rule="evenodd" node-id="475" stroke="none" target-height="480.4" target-width="520.4" target-x="336.8" target-y="480.6"></path></mask><mask height="22.539368" id="mask41" maskUnits="userSpaceOnUse" node-id="479" width="20.933838" x="299.57974" y="416.6308"><path d="M 59.50 490.60 L 579.90 490.60 L 579.90 10.30 L 59.50 10.30 Z" fill="#ffffff" fill-rule="evenodd" node-id="483" stroke="none" target-height="480.30002" target-width="520.4" target-x="59.5" target-y="10.3"></path></mask><mask height="59.5365" id="mask42" maskUnits="userSpaceOnUse" node-id="487" width="117.352036" x="249.29149" y="318.9272"><path d="M 59.50 490.60 L 579.90 490.60 L 579.90 10.30 L 59.50 10.30 Z" fill="#ffffff" fill-rule="evenodd" node-id="491" stroke="none" target-height="480.30002" target-width="520.4" target-x="59.5" target-y="10.3"></path></mask><mask height="13.60733" id="mask-12" maskUnits="userSpaceOnUse" node-id="96" width="359.75793" x="146.4257" y="306.25507"><path d="M 20.00 494.50 L 540.40 494.50 L 540.40 13.60 L 20.00 13.60 Z" fill="#ffffff" fill-rule="evenodd" node-id="498" stroke="none" target-height="480.9" target-width="520.4" target-x="20" target-y="13.6"></path></mask><mask height="46.238373" id="mask43" maskUnits="userSpaceOnUse" node-id="502" width="97.35921" x="229.20589" y="265.29495"><path d="M 20.00 494.50 L 540.40 494.50 L 540.40 13.60 L 20.00 13.60 Z" fill="#ffffff" fill-rule="evenodd" node-id="506" stroke="none" target-height="480.9" target-width="520.4" target-x="20" target-y="13.6"></path></mask><mask height="47.072083" id="mask44" maskUnits="userSpaceOnUse" node-id="510" width="96.80585" x="312.06427" y="264.6933"><path d="M 20.00 494.50 L 540.40 494.50 L 540.40 13.60 L 20.00 13.60 Z" fill="#ffffff" fill-rule="evenodd" node-id="514" stroke="none" target-height="480.9" target-width="520.4" target-x="20" target-y="13.6"></path></mask><mask height="24.587524" id="mask45" maskUnits="userSpaceOnUse" node-id="518" width="81.46214" x="232.54002" y="284.88483"><path d="M 20.00 494.50 L 540.40 494.50 L 540.40 13.60 L 20.00 13.60 Z" fill="#ffffff" fill-rule="evenodd" node-id="522" stroke="none" target-height="480.9" target-width="520.4" target-x="20" target-y="13.6"></path></mask><mask height="157.74826" id="mask46" maskUnits="userSpaceOnUse" node-id="526" width="96.701935" x="220.83508" y="327.3883"><path d="M 20.00 494.50 L 540.40 494.50 L 540.40 13.60 L 20.00 13.60 Z" fill="#ffffff" fill-rule="evenodd" node-id="530" stroke="none" target-height="480.9" target-width="520.4" target-x="20" target-y="13.6"></path></mask><mask height="11.719177" id="mask47" maskUnits="userSpaceOnUse" node-id="534" width="35.60106" x="225.92665" y="461.24786"><path d="M 20.00 494.50 L 540.40 494.50 L 540.40 13.60 L 20.00 13.60 Z" fill="#ffffff" fill-rule="evenodd" node-id="538" stroke="none" target-height="480.9" target-width="520.4" target-x="20" target-y="13.6"></path></mask><mask height="2.5664673" id="mask48" maskUnits="userSpaceOnUse" node-id="542" width="35.530228" x="225.99184" y="471.70746"><path d="M 20.00 494.50 L 540.40 494.50 L 540.40 13.60 L 20.00 13.60 Z" fill="#ffffff" fill-rule="evenodd" node-id="546" stroke="none" target-height="480.9" target-width="520.4" target-x="20" target-y="13.6"></path></mask><mask height="157.74826" id="mask49" maskUnits="userSpaceOnUse" node-id="550" width="96.701965" x="303.31143" y="327.3883"><path d="M 20.00 494.50 L 540.40 494.50 L 540.40 13.60 L 20.00 13.60 Z" fill="#ffffff" fill-rule="evenodd" node-id="554" stroke="none" target-height="480.9" target-width="520.4" target-x="20" target-y="13.6"></path></mask><mask height="11.719177" id="mask50" maskUnits="userSpaceOnUse" node-id="558" width="35.601044" x="359.32074" y="461.24786"><path d="M 20.00 494.50 L 540.40 494.50 L 540.40 13.60 L 20.00 13.60 Z" fill="#ffffff" fill-rule="evenodd" node-id="562" stroke="none" target-height="480.9" target-width="520.4" target-x="20" target-y="13.6"></path></mask><mask height="2.5664673" id="mask51" maskUnits="userSpaceOnUse" node-id="566" width="35.530273" x="359.3264" y="471.70746"><path d="M 20.00 494.50 L 540.40 494.50 L 540.40 13.60 L 20.00 13.60 Z" fill="#ffffff" fill-rule="evenodd" node-id="570" stroke="none" target-height="480.9" target-width="520.4" target-x="20" target-y="13.6"></path></mask><mask height="24.587524" id="mask52" maskUnits="userSpaceOnUse" node-id="574" width="81.46265" x="324.7472" y="284.88483"><path d="M 20.00 494.50 L 540.40 494.50 L 540.40 13.60 L 20.00 13.60 Z" fill="#ffffff" fill-rule="evenodd" node-id="578" stroke="none" target-height="480.9" target-width="520.4" target-x="20" target-y="13.6"></path></mask><mask height="42.14145" id="mask53" maskUnits="userSpaceOnUse" node-id="582" width="94.254456" x="272.32294" y="269.18347"><path d="M 20.00 494.50 L 540.40 494.50 L 540.40 13.60 L 20.00 13.60 Z" fill="#ffffff" fill-rule="evenodd" node-id="586" stroke="none" target-height="480.9" target-width="520.4" target-x="20" target-y="13.6"></path></mask><mask height="169.86185" id="mask54" maskUnits="userSpaceOnUse" node-id="590" width="83.66431" x="276.07278" y="244.88321"><path d="M 20.00 494.50 L 540.40 494.50 L 540.40 13.60 L 20.00 13.60 Z" fill="#ffffff" fill-rule="evenodd" node-id="594" stroke="none" target-height="480.9" target-width="520.4" target-x="20" target-y="13.6"></path></mask><mask height="120.60959" id="mask55" maskUnits="userSpaceOnUse" node-id="598" width="37.53781" x="279.9166" y="274.08258"><path d="M 20.00 494.50 L 540.40 494.50 L 540.40 13.60 L 20.00 13.60 Z" fill="#ffffff" fill-rule="evenodd" node-id="602" stroke="none" target-height="480.9" target-width="520.4" target-x="20" target-y="13.6"></path></mask><mask height="53.27771" id="mask56" maskUnits="userSpaceOnUse" node-id="606" width="91.32382" x="391.24835" y="253.6312"><path d="M 20.00 494.50 L 540.40 494.50 L 540.40 13.60 L 20.00 13.60 Z" fill="#ffffff" fill-rule="evenodd" node-id="610" stroke="none" target-height="480.9" target-width="520.4" target-x="20" target-y="13.6"></path></mask><mask height="53.27771" id="mask57" maskUnits="userSpaceOnUse" node-id="614" width="91.32382" x="392.49054" y="253.6312"><path d="M 20.00 494.50 L 540.40 494.50 L 540.40 13.60 L 20.00 13.60 Z" fill="#ffffff" fill-rule="evenodd" node-id="618" stroke="none" target-height="480.9" target-width="520.4" target-x="20" target-y="13.6"></path></mask><mask height="6.239319" id="mask58" maskUnits="userSpaceOnUse" node-id="622" width="105.049255" x="373.22504" y="301.94916"><path d="M 20.00 494.50 L 540.40 494.50 L 540.40 13.60 L 20.00 13.60 Z" fill="#ffffff" fill-rule="evenodd" node-id="626" stroke="none" target-height="480.9" target-width="520.4" target-x="20" target-y="13.6"></path></mask><mask height="14.52066" id="mask59" maskUnits="userSpaceOnUse" node-id="630" width="14.572968" x="433.5776" y="273.7155"><path d="M 20.00 494.50 L 540.40 494.50 L 540.40 13.60 L 20.00 13.60 Z" fill="#ffffff" fill-rule="evenodd" node-id="634" stroke="none" target-height="480.9" target-width="520.4" target-x="20" target-y="13.6"></path></mask></defs><g node-id="636"><path d="M 77.40 387.00 L 540.50 387.00 L 540.50 81.80 L 77.40 81.80 Z" fill="#e6e5ce" fill-rule="evenodd" group-id="1" id="Fill-1" node-id="13" stroke="none" target-height="305.2" target-width="463.1" target-x="77.4" target-y="81.8"></path><path d="M 84.60 379.80 L 533.30 379.80 L 533.30 89.00 L 84.60 89.00 Z" fill="#d6ede7" fill-rule="evenodd" group-id="1" id="Fill-2" node-id="14" stroke="none" target-height="290.8" target-width="448.69998" target-x="84.6" target-y="89"></path><path d="M 84.60 164.40 L 533.30 164.40 L 533.30 89.00 L 84.60 89.00 Z" fill="#c2e4dc" fill-rule="evenodd" group-id="1" id="Fill-3" node-id="15" stroke="none" target-height="75.399994" target-width="448.69998" target-x="84.6" target-y="89"></path><path d="M 84.60 121.30 L 533.30 121.30 L 533.30 89.00 L 84.60 89.00 Z" fill="#aedbd0" fill-rule="evenodd" group-id="1" id="Fill-4" node-id="16" stroke="none" target-height="32.300003" target-width="448.69998" target-x="84.6" target-y="89"></path><g node-id="637"><g node-id="641"><g node-id="710"><path d="M 192.30 345.50 L 192.90 342.80 L 193.20 337.50 L 192.30 332.30 L 190.80 327.90 L 190.60 324.10 L 191.50 320.40 L 194.20 316.10 L 196.90 310.00 L 197.70 306.50 L 198.20 299.70 L 197.90 296.40 L 197.00 291.90 L 195.50 287.70 L 192.40 281.60 L 191.50 277.20 L 191.90 272.80 L 193.90 267.70 L 194.50 265.00 L 194.80 262.30 L 194.40 257.00 L 192.80 252.00 L 190.10 247.50 L 187.00 243.80 L 186.10 241.80 L 185.60 239.70 L 185.50 237.50 L 185.90 235.50 L 188.30 230.70 L 189.40 227.80 L 190.10 224.60 L 190.50 221.50 L 190.40 218.30 L 189.10 212.20 L 186.40 206.50 L 184.60 204.00 L 180.20 199.70 L 173.50 195.80 L 172.70 194.70 L 172.40 193.40 L 173.50 187.70 L 173.90 183.70 L 173.80 179.60 L 173.20 175.60 L 172.10 171.80 L 170.60 168.10 L 168.60 164.60 L 166.30 161.40 L 163.60 158.50 L 160.50 156.00 L 157.10 153.90 L 153.40 152.20 L 149.70 151.10 L 146.00 150.60 L 142.40 150.60 L 138.80 151.20 L 135.40 152.10 L 132.10 153.60 L 129.00 155.50 L 126.20 157.70 L 123.60 160.40 L 121.50 163.30 L 119.70 166.70 L 118.30 170.30 L 117.40 174.10 L 117.00 177.80 L 116.90 184.20 L 116.60 186.70 L 115.80 189.10 L 113.40 193.40 L 109.90 196.80 L 107.80 197.90 L 101.40 200.20 L 97.50 202.00 L 93.90 204.30 L 90.40 206.90 L 87.30 210.00 L 84.50 213.50 L 82.00 217.30 L 80.00 221.50 L 78.30 226.10 L 77.20 230.70 L 76.60 235.20 L 76.40 239.70 L 76.70 244.30 L 77.30 248.70 L 79.00 255.60 L 79.20 258.10 L 78.70 263.10 L 76.90 267.50 L 75.60 269.50 L 74.00 271.20 L 69.30 274.90 L 66.70 277.50 L 64.40 280.30 L 62.40 283.40 L 60.70 286.90 L 59.30 290.60 L 58.30 295.30 L 57.80 299.80 L 57.90 304.40 L 58.50 309.00 L 59.70 313.40 L 61.30 317.60 L 63.50 321.60 L 66.00 325.30 L 70.10 330.20 L 70.80 331.90 L 71.00 333.70 L 70.20 338.00 L 70.10 340.40 L 71.10 345.00 L 73.40 349.00 L 75.00 350.70 L 76.80 352.10 L 79.60 353.60 L 80.00 354.10 L 80.10 354.60 L 79.40 358.60 L 79.30 362.00 L 79.70 365.30 L 80.60 368.50 L 82.00 371.40 L 83.90 374.20 L 86.10 376.50 L 88.70 378.50 L 91.80 380.00 L 97.70 381.50 L 100.60 383.00 L 102.40 384.80 L 105.70 390.80 L 110.40 397.70 L 113.30 400.70 L 116.40 403.50 L 119.80 405.90 L 123.50 408.00 L 127.40 409.80 L 131.30 411.00 L 135.10 411.80 L 138.90 412.20 L 142.60 412.10 L 150.00 410.90 L 156.90 408.20 L 163.20 404.20 L 168.70 399.00 L 171.00 395.90 L 173.00 392.60 L 174.80 389.10 L 176.20 385.20 L 177.30 380.70 L 177.90 376.20 L 178.30 368.60 L 178.90 365.60 L 180.00 362.70 L 181.40 360.10 L 183.20 357.80 L 187.60 353.70 L 189.60 351.30 L 191.10 348.60 L 192.30 345.50" fill="#89cebc" fill-rule="evenodd" group-id="1,2,6,75" id="Fill-5" node-id="22" stroke="none" target-height="261.6" target-width="140.4" target-x="57.8" target-y="150.6"></path></g></g><g node-id="642"><g node-id="712"><path d="M 183.40 339.40 L 183.80 337.00 L 183.70 332.30 L 183.00 328.90 L 180.70 323.10 L 180.50 320.60 L 181.10 317.30 L 183.30 313.40 L 185.30 307.70 L 185.90 303.60 L 186.00 299.60 L 185.40 295.60 L 184.30 291.70 L 182.70 288.10 L 179.50 282.90 L 178.30 279.10 L 178.50 275.20 L 179.90 270.50 L 180.30 268.00 L 180.20 263.30 L 179.40 259.90 L 178.00 256.70 L 176.00 253.80 L 172.20 249.70 L 171.20 248.10 L 170.60 246.20 L 170.40 244.30 L 170.60 242.50 L 173.40 235.40 L 173.90 231.60 L 173.80 227.90 L 173.00 224.20 L 171.70 220.70 L 169.90 217.60 L 167.50 214.70 L 164.70 212.20 L 161.60 210.20 L 156.90 208.20 L 156.10 207.20 L 155.70 206.10 L 156.40 201.00 L 156.50 197.40 L 156.10 193.80 L 155.30 190.30 L 154.10 187.00 L 152.40 183.80 L 150.50 180.80 L 148.10 178.10 L 145.50 175.70 L 142.50 173.70 L 139.30 172.00 L 135.80 170.80 L 132.40 170.10 L 129.00 169.90 L 125.70 170.10 L 122.50 170.80 L 119.40 171.90 L 116.50 173.40 L 113.80 175.20 L 111.40 177.40 L 109.30 179.90 L 107.50 182.70 L 106.00 185.70 L 105.00 189.10 L 104.40 192.40 L 104.50 203.70 L 103.90 205.90 L 102.00 209.80 L 99.10 213.00 L 97.20 214.20 L 91.50 216.60 L 88.10 218.40 L 84.90 220.70 L 82.00 223.30 L 79.30 226.20 L 76.90 229.50 L 75.00 233.00 L 73.40 236.90 L 72.10 241.00 L 71.40 245.10 L 71.10 249.20 L 71.20 253.20 L 72.70 261.10 L 74.60 267.10 L 75.00 269.30 L 74.80 273.70 L 73.40 277.80 L 72.40 279.60 L 71.00 281.30 L 67.00 284.80 L 64.80 287.20 L 61.20 292.80 L 58.90 299.40 L 58.20 303.50 L 58.10 307.60 L 58.50 311.70 L 59.40 315.60 L 60.70 319.40 L 62.40 323.10 L 64.60 326.50 L 67.20 329.60 L 71.20 333.70 L 71.90 335.20 L 72.20 336.80 L 71.80 340.60 L 71.80 342.70 L 73.00 346.70 L 75.40 350.20 L 76.90 351.60 L 81.70 354.20 L 81.50 361.20 L 82.10 364.10 L 83.20 366.90 L 84.60 369.40 L 86.50 371.70 L 88.70 373.70 L 91.20 375.30 L 94.10 376.40 L 100.20 377.50 L 102.30 378.50 L 104.00 380.00 L 108.10 386.10 L 111.30 390.00 L 115.00 393.40 L 121.20 397.60 L 128.40 400.50 L 135.50 401.80 L 142.40 401.60 L 146.80 400.70 L 151.10 399.30 L 155.10 397.30 L 158.90 394.80 L 162.20 391.80 L 165.20 388.30 L 167.20 385.50 L 170.20 379.20 L 171.20 375.60 L 172.00 371.60 L 172.30 367.60 L 172.10 360.80 L 172.50 358.10 L 173.30 355.50 L 174.40 353.10 L 175.90 350.90 L 179.70 347.00 L 181.30 344.80 L 182.50 342.30 L 183.40 339.40" fill="#f4ffd4" fill-rule="evenodd" group-id="1,2,7,77" id="Fill-7" node-id="27" stroke="none" target-height="231.9" target-width="127.9" target-x="58.1" target-y="169.9"></path></g></g><g node-id="644"><path d="M 151.10 382.90 L 262.90 382.90 L 262.90 212.60 L 151.10 212.60 Z" fill="#ef918e" fill-rule="evenodd" group-id="1,2,9" id="Fill-9" node-id="31" stroke="none" target-height="170.29999" target-width="111.79999" target-x="151.1" target-y="212.6"></path></g><g node-id="645"><path d="M 248.50 245.30 L 250.50 245.30 L 250.50 228.00 L 248.50 228.00 L 248.50 245.30 Z M 227.60 245.30 L 229.50 245.30 L 229.50 228.00 L 227.60 228.00 L 227.60 245.30 Z M 206.60 245.30 L 208.50 245.30 L 208.50 228.00 L 206.60 228.00 L 206.60 245.30 Z M 185.60 245.30 L 187.60 245.30 L 187.60 228.00 L 185.60 228.00 L 185.60 245.30 Z M 164.60 245.30 L 166.60 245.30 L 166.60 228.00 L 164.60 228.00 L 164.60 245.30 Z" fill="#184657" fill-rule="evenodd" group-id="1,2,10" id="Fill-11" node-id="32" stroke="none" target-height="17.300003" target-width="85.899994" target-x="164.6" target-y="228"></path></g><g node-id="646"><path d="M 248.50 279.40 L 250.50 279.40 L 250.50 262.10 L 248.50 262.10 L 248.50 279.40 Z M 227.60 279.40 L 229.50 279.40 L 229.50 262.10 L 227.60 262.10 L 227.60 279.40 Z M 206.60 279.40 L 208.50 279.40 L 208.50 262.10 L 206.60 262.10 L 206.60 279.40 Z M 185.60 279.40 L 187.60 279.40 L 187.60 262.10 L 185.60 262.10 L 185.60 279.40 Z M 164.60 279.40 L 166.60 279.40 L 166.60 262.10 L 164.60 262.10 L 164.60 279.40 Z" fill="#184657" fill-rule="evenodd" group-id="1,2,11" id="Fill-12" node-id="33" stroke="none" target-height="17.299988" target-width="85.899994" target-x="164.6" target-y="262.1"></path></g><g node-id="647"><path d="M 248.50 313.60 L 250.50 313.60 L 250.50 296.20 L 248.50 296.20 L 248.50 313.60 Z M 227.60 313.60 L 229.50 313.60 L 229.50 296.20 L 227.60 296.20 L 227.60 313.60 Z M 206.60 313.60 L 208.50 313.60 L 208.50 296.20 L 206.60 296.20 L 206.60 313.60 Z M 185.60 313.60 L 187.60 313.60 L 187.60 296.20 L 185.60 296.20 L 185.60 313.60 Z M 164.60 313.60 L 166.60 313.60 L 166.60 296.20 L 164.60 296.20 L 164.60 313.60 Z" fill="#184657" fill-rule="evenodd" group-id="1,2,12" id="Fill-13" node-id="34" stroke="none" target-height="17.399994" target-width="85.899994" target-x="164.6" target-y="296.2"></path></g><g node-id="648"><path d="M 248.50 347.70 L 250.50 347.70 L 250.50 330.30 L 248.50 330.30 L 248.50 347.70 Z M 227.60 347.70 L 229.50 347.70 L 229.50 330.30 L 227.60 330.30 L 227.60 347.70 Z M 206.60 347.70 L 208.50 347.70 L 208.50 330.30 L 206.60 330.30 L 206.60 347.70 Z M 185.60 347.70 L 187.60 347.70 L 187.60 330.30 L 185.60 330.30 L 185.60 347.70 Z M 164.60 347.70 L 166.60 347.70 L 166.60 330.30 L 164.60 330.30 L 164.60 347.70 Z" fill="#184657" fill-rule="evenodd" group-id="1,2,13" id="Fill-14" node-id="35" stroke="none" target-height="17.400024" target-width="85.899994" target-x="164.6" target-y="330.3"></path></g><g node-id="649"><path d="M 248.50 381.80 L 250.50 381.80 L 250.50 364.40 L 248.50 364.40 L 248.50 381.80 Z M 227.60 381.80 L 229.50 381.80 L 229.50 364.40 L 227.60 364.40 L 227.60 381.80 Z M 206.60 381.80 L 208.50 381.80 L 208.50 364.40 L 206.60 364.40 L 206.60 381.80 Z M 185.60 381.80 L 187.60 381.80 L 187.60 364.40 L 185.60 364.40 L 185.60 381.80 Z M 164.60 381.80 L 166.60 381.80 L 166.60 364.40 L 164.60 364.40 L 164.60 381.80 Z" fill="#184657" fill-rule="evenodd" group-id="1,2,14" id="Fill-15" node-id="36" stroke="none" target-height="17.399994" target-width="85.899994" target-x="164.6" target-y="364.4"></path></g><g node-id="650"><path d="M 431.10 344.50 L 434.20 347.80 L 436.10 352.00 L 436.60 354.30 L 436.90 360.20 L 437.40 363.70 L 438.20 367.10 L 439.70 371.00 L 441.70 374.50 L 444.00 377.70 L 446.70 380.50 L 449.70 382.90 L 453.00 384.80 L 456.50 386.30 L 460.20 387.30 L 464.00 387.80 L 467.80 387.80 L 471.70 387.20 L 475.60 386.00 L 479.60 384.10 L 483.20 381.80 L 486.50 379.00 L 489.40 375.80 L 491.80 372.40 L 494.90 366.80 L 496.30 365.40 L 497.90 364.50 L 503.00 363.10 L 505.30 362.00 L 507.40 360.50 L 509.10 358.60 L 511.60 354.30 L 512.30 351.80 L 512.60 349.30 L 512.10 343.20 L 515.90 340.70 L 517.10 339.40 L 518.60 337.10 L 519.40 334.50 L 519.70 332.70 L 519.00 327.60 L 519.10 326.20 L 519.60 324.90 L 524.80 318.30 L 526.40 315.20 L 527.60 312.00 L 529.00 305.10 L 529.10 301.60 L 528.70 298.10 L 527.90 294.50 L 526.90 291.60 L 524.00 286.60 L 520.30 282.50 L 516.10 279.00 L 514.40 276.80 L 513.30 274.20 L 512.70 271.50 L 512.70 268.60 L 514.10 262.30 L 514.80 255.50 L 514.20 248.50 L 512.10 241.50 L 508.60 235.30 L 504.00 230.30 L 498.60 226.50 L 495.60 225.10 L 490.70 223.40 L 489.10 222.50 L 487.60 221.30 L 485.90 219.10 L 484.60 216.60 L 483.80 213.80 L 483.70 207.90 L 482.70 202.20 L 480.20 196.80 L 476.60 192.50 L 474.40 190.70 L 469.50 188.20 L 464.10 187.10 L 461.40 187.00 L 458.60 187.40 L 455.70 188.20 L 452.90 189.50 L 450.30 191.10 L 447.90 193.10 L 444.00 197.80 L 441.40 203.30 L 440.50 206.20 L 440.00 212.40 L 441.10 219.90 L 440.90 220.90 L 440.30 221.70 L 436.50 223.80 L 433.90 225.70 L 431.70 228.00 L 429.90 230.60 L 428.60 233.50 L 427.70 236.60 L 427.30 239.80 L 427.40 243.00 L 428.10 246.30 L 430.80 252.20 L 431.00 255.40 L 429.90 258.50 L 426.90 262.30 L 425.50 264.90 L 424.50 267.70 L 424.00 270.70 L 424.00 273.80 L 424.60 276.90 L 426.20 280.80 L 426.50 284.20 L 426.00 286.80 L 423.40 292.30 L 422.30 295.50 L 421.60 298.90 L 421.30 302.40 L 421.60 305.80 L 422.40 309.40 L 424.40 314.10 L 426.70 318.10 L 427.20 320.20 L 427.10 322.40 L 425.60 327.50 L 425.10 330.50 L 425.20 333.50 L 425.80 336.60 L 428.00 341.10 L 431.10 344.50" fill="#89cebc" fill-rule="evenodd" group-id="1,2,15" id="Fill-16" node-id="37" stroke="none" target-height="200.79999" target-width="107.79999" target-x="421.3" target-y="187"></path></g><g node-id="651"><path d="M 437.00 339.30 L 439.60 342.50 L 441.10 346.30 L 441.40 348.40 L 441.50 356.70 L 442.00 359.80 L 443.20 363.30 L 444.70 366.60 L 446.60 369.50 L 448.90 372.20 L 451.50 374.40 L 454.40 376.40 L 457.50 377.90 L 460.70 379.00 L 464.20 379.70 L 467.70 379.90 L 471.30 379.70 L 474.90 378.90 L 478.70 377.50 L 482.10 375.70 L 485.20 373.40 L 488.00 370.80 L 490.50 367.80 L 493.60 363.10 L 495.00 362.00 L 496.50 361.20 L 501.30 360.40 L 503.50 359.50 L 507.10 356.80 L 509.60 353.10 L 510.40 350.90 L 510.90 348.70 L 510.80 343.30 L 513.70 341.70 L 515.60 340.20 L 517.10 338.30 L 518.00 336.10 L 518.40 333.70 L 518.00 329.90 L 518.20 328.70 L 518.80 327.60 L 523.90 322.00 L 526.90 316.60 L 528.60 310.70 L 528.90 307.50 L 528.80 304.40 L 527.50 298.60 L 525.20 294.00 L 522.90 291.00 L 518.40 286.70 L 517.10 284.60 L 516.20 282.30 L 515.90 279.80 L 516.00 277.30 L 518.40 268.90 L 518.90 262.70 L 518.10 256.40 L 517.00 252.80 L 515.50 249.50 L 513.70 246.60 L 511.60 243.90 L 509.10 241.50 L 506.50 239.50 L 503.60 237.80 L 498.10 235.40 L 496.20 233.80 L 494.70 231.80 L 493.70 229.50 L 493.20 226.90 L 493.40 221.70 L 492.90 216.60 L 491.70 213.20 L 490.10 210.20 L 488.00 207.60 L 485.40 205.40 L 482.60 203.70 L 479.40 202.50 L 476.10 201.90 L 472.70 201.90 L 469.20 202.50 L 466.50 203.50 L 461.80 206.30 L 459.80 208.10 L 457.40 211.00 L 455.60 214.10 L 454.30 217.50 L 453.50 221.10 L 453.40 224.70 L 454.00 229.60 L 453.60 230.50 L 453.10 231.20 L 449.40 232.80 L 447.00 234.30 L 444.90 236.20 L 443.10 238.40 L 441.70 240.90 L 440.70 243.50 L 440.10 246.40 L 440.00 249.20 L 440.40 252.20 L 442.50 257.50 L 442.50 260.40 L 441.30 263.10 L 438.40 266.20 L 436.90 268.40 L 435.80 270.90 L 435.10 273.60 L 435.00 276.20 L 435.30 279.00 L 436.60 283.40 L 436.60 285.70 L 436.00 287.90 L 433.20 292.60 L 432.00 295.40 L 431.20 298.30 L 430.70 301.40 L 430.70 304.50 L 431.20 307.60 L 432.30 310.90 L 434.60 315.60 L 434.90 317.50 L 434.70 319.50 L 433.00 323.90 L 432.40 326.50 L 432.30 329.20 L 432.70 332.00 L 433.70 334.90 L 435.10 337.30 L 437.00 339.30" fill="#f4ffd4" fill-rule="evenodd" group-id="1,2,16" id="Fill-17" node-id="38" stroke="none" target-height="178" target-width="98.20001" target-x="430.7" target-y="201.9"></path></g><g node-id="652"><path d="M 219.50 385.60 L 224.90 380.50 L 229.30 374.40 L 232.30 367.50 L 233.30 363.80 L 233.90 360.00 L 234.10 356.00 L 233.90 352.10 L 232.40 344.80 L 231.10 341.30 L 228.90 337.00 L 226.20 333.00 L 223.00 329.40 L 219.40 326.20 L 215.40 323.60 L 211.00 321.40 L 204.00 319.20 L 200.20 318.60 L 196.30 318.40 L 189.30 319.10 L 187.90 315.10 L 186.20 311.30 L 184.10 307.80 L 181.60 304.50 L 178.80 301.50 L 175.70 298.80 L 172.30 296.50 L 168.60 294.50 L 164.70 292.90 L 160.70 291.80 L 156.40 291.00 L 152.00 290.80 L 144.10 291.60 L 136.90 293.80 L 132.40 296.00 L 128.30 298.80 L 124.60 302.00 L 121.30 305.70 L 118.60 309.80 L 116.30 314.20 L 114.10 321.40 L 113.30 329.20 L 113.40 332.80 L 114.70 339.70 L 110.80 338.90 L 106.70 338.60 L 102.60 338.90 L 98.70 339.70 L 95.00 340.90 L 91.50 342.70 L 88.30 344.80 L 85.40 347.30 L 82.90 350.20 L 80.70 353.40 L 78.90 356.90 L 77.60 360.50 L 76.90 364.40 L 76.60 368.50 L 76.70 371.70 L 78.00 377.60 L 79.10 380.40 L 81.90 385.60 L 219.50 385.60 Z" fill="#41b093" fill-rule="evenodd" group-id="1,2,17" id="Fill-18" node-id="39" stroke="none" target-height="94.80002" target-width="157.5" target-x="76.6" target-y="290.8"></path></g><g node-id="653"><path d="M 100.60 385.60 L 95.60 380.70 L 91.80 374.90 L 90.40 371.70 L 89.40 368.30 L 88.70 364.80 L 88.50 361.10 L 88.80 356.80 L 89.60 352.80 L 91.00 349.00 L 92.80 345.40 L 95.00 342.10 L 97.70 339.10 L 100.70 336.50 L 104.00 334.30 L 107.60 332.50 L 111.40 331.10 L 115.50 330.30 L 119.80 330.00 L 125.60 330.60 L 126.70 327.20 L 129.90 321.20 L 131.90 318.50 L 136.90 313.80 L 142.70 310.20 L 145.90 308.90 L 152.80 307.40 L 156.50 307.10 L 160.90 307.40 L 165.00 308.30 L 168.90 309.60 L 172.60 311.50 L 176.00 313.80 L 179.10 316.50 L 181.80 319.50 L 184.10 322.90 L 186.00 326.60 L 187.30 330.40 L 188.20 334.60 L 188.50 338.90 L 188.20 343.40 L 187.30 347.60 L 190.50 346.90 L 193.90 346.70 L 197.30 346.90 L 200.50 347.60 L 203.60 348.60 L 206.50 350.10 L 209.10 351.90 L 211.50 353.90 L 213.60 356.30 L 215.40 358.90 L 216.90 361.80 L 217.90 364.90 L 218.60 368.10 L 218.80 371.50 L 218.50 375.30 L 217.70 379.00 L 216.30 382.40 L 214.40 385.60 L 100.60 385.60 Z" fill="#41b093" fill-rule="evenodd" group-id="1,2,18" id="Fill-19" node-id="40" stroke="none" target-height="78.5" target-width="130.3" target-x="88.5" target-y="307.1"></path></g><g node-id="654"><path d="M 492.20 385.60 L 497.60 380.50 L 501.90 374.40 L 505.00 367.50 L 506.00 363.80 L 506.60 360.00 L 506.80 356.00 L 506.60 352.10 L 505.10 344.80 L 503.80 341.30 L 501.60 337.00 L 498.90 333.00 L 495.70 329.40 L 492.10 326.20 L 488.10 323.60 L 483.70 321.40 L 476.70 319.20 L 472.90 318.60 L 469.00 318.40 L 462.00 319.10 L 460.60 315.10 L 458.90 311.30 L 456.80 307.80 L 454.30 304.50 L 451.40 301.50 L 448.30 298.80 L 444.90 296.50 L 441.30 294.50 L 437.40 292.90 L 433.40 291.80 L 429.10 291.00 L 424.60 290.80 L 416.80 291.60 L 409.60 293.80 L 405.10 296.00 L 401.00 298.80 L 397.30 302.00 L 394.00 305.70 L 391.20 309.80 L 389.00 314.20 L 386.70 321.40 L 385.90 329.20 L 386.10 332.80 L 387.40 339.70 L 383.50 338.90 L 379.40 338.60 L 375.30 338.90 L 371.40 339.70 L 367.70 340.90 L 364.20 342.70 L 361.00 344.80 L 358.10 347.30 L 355.50 350.20 L 353.40 353.40 L 351.60 356.90 L 350.30 360.50 L 349.50 364.40 L 349.20 368.50 L 349.40 371.70 L 350.70 377.60 L 351.70 380.40 L 354.60 385.60 L 492.20 385.60 Z" fill="#41b093" fill-rule="evenodd" group-id="1,2,19" id="Fill-20" node-id="41" stroke="none" target-height="94.80002" target-width="157.59998" target-x="349.2" target-y="290.8"></path></g><g node-id="655"><path d="M 373.20 385.60 L 368.30 380.70 L 364.50 374.90 L 363.10 371.70 L 362.00 368.30 L 361.40 364.80 L 361.20 361.10 L 361.50 356.80 L 362.30 352.80 L 363.60 349.00 L 365.50 345.40 L 367.70 342.10 L 370.30 339.10 L 373.30 336.50 L 376.60 334.30 L 380.30 332.50 L 384.10 331.10 L 388.20 330.30 L 392.50 330.00 L 398.20 330.60 L 399.40 327.20 L 402.60 321.20 L 404.60 318.50 L 409.50 313.80 L 415.40 310.20 L 418.60 308.90 L 425.40 307.40 L 429.10 307.10 L 433.50 307.40 L 437.70 308.30 L 441.60 309.60 L 445.30 311.50 L 448.70 313.80 L 451.80 316.50 L 454.50 319.50 L 456.80 322.90 L 458.60 326.60 L 460.00 330.40 L 460.90 334.60 L 461.20 338.90 L 460.80 343.40 L 459.90 347.60 L 463.20 346.90 L 466.60 346.70 L 470.00 346.90 L 473.20 347.60 L 476.30 348.60 L 479.20 350.10 L 481.80 351.90 L 484.20 353.90 L 486.30 356.30 L 488.10 358.90 L 489.60 361.80 L 490.60 364.90 L 491.30 368.10 L 491.50 371.50 L 491.20 375.30 L 490.30 379.00 L 488.90 382.40 L 487.10 385.60 L 373.20 385.60 Z" fill="#41b093" fill-rule="evenodd" group-id="1,2,20" id="Fill-21" node-id="42" stroke="none" target-height="78.5" target-width="130.29999" target-x="361.2" target-y="307.1"></path></g><g node-id="656"><path d="M 508.20 138.70 L 504.50 137.00 L 501.00 135.80 L 497.70 135.10 L 494.40 134.80 L 491.30 135.20 L 488.40 136.10 L 484.50 138.60 L 480.90 142.80 L 479.70 145.40 L 479.20 147.60 L 479.30 149.70 L 479.90 151.80 L 481.10 153.80 L 482.80 156.00 L 485.80 159.00 L 489.80 162.20 L 536.50 197.00 L 554.90 173.30 L 525.10 150.20 L 515.40 143.30 L 508.20 138.70" fill="#46acc3" fill-rule="evenodd" group-id="1,2,21" id="Fill-22" node-id="43" stroke="none" target-height="62.199997" target-width="75.70001" target-x="479.2" target-y="134.8"></path></g><g node-id="657"><path d="M 579.80 184.60 L 579.50 189.30 L 578.60 193.80 L 577.30 198.00 L 575.40 202.00 L 573.10 205.60 L 570.30 208.90 L 567.20 211.90 L 563.80 214.30 L 560.10 216.30 L 556.10 217.80 L 551.90 218.70 L 547.50 219.00 L 543.00 218.70 L 538.90 217.80 L 534.90 216.30 L 531.10 214.30 L 527.70 211.90 L 524.60 208.90 L 521.90 205.60 L 519.60 202.00 L 517.70 198.00 L 516.30 193.80 L 515.40 189.30 L 515.10 184.60 L 515.40 179.90 L 516.30 175.40 L 517.70 171.20 L 519.60 167.20 L 521.90 163.60 L 524.60 160.30 L 527.70 157.40 L 531.10 154.90 L 534.90 152.90 L 538.90 151.40 L 543.00 150.50 L 547.50 150.20 L 551.90 150.50 L 556.10 151.40 L 560.10 152.90 L 563.80 154.90 L 567.20 157.40 L 570.30 160.30 L 573.10 163.60 L 575.40 167.20 L 577.30 171.20 L 578.60 175.40 L 579.50 179.90 L 579.80 184.60" fill="#46acc3" fill-rule="evenodd" group-id="1,2,22" id="Fill-23" node-id="44" stroke="none" target-height="68.8" target-width="64.70001" target-x="515.1" target-y="150.2"></path></g><g node-id="658"><path d="M 504.20 148.00 L 503.10 149.20 L 500.30 150.30 L 497.40 149.90 L 496.00 149.10 L 494.90 148.00 L 493.80 145.20 L 494.20 142.30 L 495.00 140.90 L 496.10 139.80 L 498.80 138.70 L 501.80 139.10 L 503.20 139.90 L 504.30 141.00 L 505.40 143.70 L 505.00 146.70 L 504.20 148.00" fill="#0d232b" fill-rule="evenodd" group-id="1,2,23" id="Fill-24" node-id="45" stroke="none" target-height="11.600006" target-width="11.600006" target-x="493.8" target-y="138.7"></path></g><g node-id="659"><path d="M 495.80 151.10 L 497.40 168.00 L 491.20 163.00 Z" fill="#deb052" fill-rule="evenodd" group-id="1,2,24" id="Fill-25" node-id="46" stroke="none" target-height="16.899994" target-width="6.1999817" target-x="491.2" target-y="151.1"></path></g><g node-id="660"><path d="M 488.10 150.80 L 489.10 161.00 L 490.60 166.40 L 491.60 168.10 L 495.80 151.10 L 491.50 150.30 L 488.10 150.80" fill="#fccb67" fill-rule="evenodd" group-id="1,2,25" id="Fill-26" node-id="47" stroke="none" target-height="17.800003" target-width="7.6999817" target-x="488.1" target-y="150.3"></path></g><g node-id="661"><path d="M 492.90 382.90 L 547.20 382.90 L 547.20 260.40 L 492.90 260.40 Z" fill="#5190a7" fill-rule="evenodd" group-id="1,2,26" id="Fill-27" node-id="48" stroke="none" target-height="122.5" target-width="54.30002" target-x="492.9" target-y="260.4"></path></g><g node-id="662"><path d="M 529.40 288.60 L 531.40 288.60 L 531.40 271.20 L 529.40 271.20 L 529.40 288.60 Z M 508.50 288.60 L 510.40 288.60 L 510.40 271.20 L 508.50 271.20 L 508.50 288.60 Z" fill="#184657" fill-rule="evenodd" group-id="1,2,27" id="Fill-28" node-id="49" stroke="none" target-height="17.399994" target-width="22.900024" target-x="508.5" target-y="271.2"></path></g><g node-id="663"><path d="M 529.40 319.90 L 531.40 319.90 L 531.40 302.60 L 529.40 302.60 L 529.40 319.90 Z M 508.50 319.90 L 510.40 319.90 L 510.40 302.60 L 508.50 302.60 L 508.50 319.90 Z" fill="#184657" fill-rule="evenodd" group-id="1,2,28" id="Fill-29" node-id="50" stroke="none" target-height="17.299988" target-width="22.900024" target-x="508.5" target-y="302.6"></path></g><g node-id="664"><path d="M 529.40 351.30 L 531.40 351.30 L 531.40 333.90 L 529.40 333.90 L 529.40 351.30 Z M 508.50 351.30 L 510.40 351.30 L 510.40 333.90 L 508.50 333.90 L 508.50 351.30 Z" fill="#184657" fill-rule="evenodd" group-id="1,2,29" id="Fill-30" node-id="51" stroke="none" target-height="17.399994" target-width="22.900024" target-x="508.5" target-y="333.9"></path></g><g node-id="665"><path d="M 529.40 382.60 L 531.40 382.60 L 531.40 365.30 L 529.40 365.30 L 529.40 382.60 Z M 508.50 382.60 L 510.40 382.60 L 510.40 365.30 L 508.50 365.30 L 508.50 382.60 Z" fill="#184657" fill-rule="evenodd" group-id="1,2,30" id="Fill-31" node-id="52" stroke="none" target-height="17.300018" target-width="22.900024" target-x="508.5" target-y="365.3"></path></g><g node-id="666"><path d="M 376.30 372.10 L 426.10 372.10 L 426.10 201.80 L 376.30 201.80 Z" fill="#41b093" fill-rule="evenodd" group-id="1,2,31" id="Fill-32" node-id="53" stroke="none" target-height="170.3" target-width="49.80002" target-x="376.3" target-y="201.8"></path></g><g node-id="667"><path d="M 385.30 212.70 L 415.40 212.70 L 415.40 210.80 L 385.30 210.80 L 385.30 212.70 Z M 385.30 233.50 L 415.40 233.50 L 415.40 231.60 L 385.30 231.60 L 385.30 233.50 Z M 385.30 254.30 L 415.40 254.30 L 415.40 252.40 L 385.30 252.40 L 385.30 254.30 Z M 385.30 275.10 L 415.40 275.10 L 415.40 273.20 L 385.30 273.20 L 385.30 275.10 Z M 385.30 296.00 L 415.40 296.00 L 415.40 294.00 L 385.30 294.00 L 385.30 296.00 Z" fill="#184657" fill-rule="evenodd" group-id="1,2,32" id="Fill-33" node-id="54" stroke="none" target-height="85.2" target-width="30.100006" target-x="385.3" target-y="210.8"></path></g><path d="M 386.30 317.30 L 416.50 317.30 L 416.50 315.40 L 386.30 315.40 L 386.30 317.30 Z M 386.30 338.10 L 416.50 338.10 L 416.50 336.20 L 386.30 336.20 L 386.30 338.10 Z M 386.30 358.90 L 416.50 358.90 L 416.50 357.00 L 386.30 357.00 L 386.30 358.90 Z" fill="#184657" fill-rule="evenodd" group-id="1,2,33" id="Fill-34" node-id="55" stroke="none" target-height="43.5" target-width="30.200012" target-x="386.3" target-y="315.4"></path></g><path d="M 177.90 383.40 L 188.70 383.40 L 188.70 85.40 L 177.90 85.40 Z" fill="#e6e5ce" fill-rule="evenodd" group-id="1" id="Fill-35" node-id="56" stroke="none" target-height="298" target-width="10.800003" target-x="177.9" target-y="85.4"></path><g node-id="638"><g node-id="669"><g node-id="714"><path d="M 528.60 490.60 L 82.10 490.60 L 80.70 490.40 L 79.50 489.60 L 78.70 488.50 L 78.50 487.00 L 78.70 485.60 L 79.50 484.50 L 80.70 483.70 L 82.10 483.40 L 528.60 483.40 L 530.00 483.70 L 531.10 484.50 L 531.90 485.60 L 532.20 487.00 L 531.90 488.50 L 531.10 489.60 L 530.00 490.40 L 528.60 490.60" fill="#a7c7d3" fill-rule="evenodd" group-id="1,3,34,79" id="Fill-36" node-id="62" stroke="none" target-height="7.200012" target-width="453.7" target-x="78.5" target-y="483.4"></path></g></g><path d="M 320.60 88.90 L 320.60 59.20 L 320.40 56.90 L 319.80 54.70 L 317.60 50.90 L 314.20 48.10 L 310.00 46.50 L 307.60 46.30 L 305.30 46.50 L 301.10 48.10 L 297.70 50.90 L 295.50 54.70 L 294.70 59.20 L 294.70 88.90 L 291.10 89.10 L 287.70 89.80 L 284.60 90.90 L 281.50 92.40 L 278.80 94.20 L 276.30 96.40 L 274.10 98.90 L 272.30 101.60 L 270.70 104.60 L 269.60 107.80 L 269.00 111.20 L 268.70 114.70 L 346.60 114.70 L 346.30 111.20 L 345.70 107.80 L 344.50 104.60 L 343.00 101.60 L 341.20 98.90 L 339.00 96.40 L 336.50 94.20 L 333.70 92.40 L 330.70 90.90 L 327.50 89.80 L 324.20 89.10 L 320.60 88.90" fill="#0d232b" fill-rule="evenodd" group-id="1,3" id="Fill-902" node-id="63" stroke="none" target-height="68.399994" target-width="77.899994" target-x="268.7" target-y="46.3"></path><g node-id="671"><path d="M 306.00 48.90 L 309.30 48.90 L 309.30 10.30 L 306.00 10.30 Z" fill="#0d232b" fill-rule="evenodd" group-id="1,3,36" id="Fill-904" node-id="67" stroke="none" target-height="38.600002" target-width="3.2999878" target-x="306" target-y="10.3"></path></g><g node-id="672"><path d="M 500.90 142.60 L 500.30 143.20 L 499.80 142.60 L 500.30 142.10 L 500.90 142.60" fill="#ffffff" fill-rule="evenodd" group-id="1,3,37" id="Fill-906" node-id="68" stroke="none" target-height="1.0999908" target-width="1.1000061" target-x="499.8" target-y="142.1"></path></g><g node-id="673"><path d="M 277.80 180.10 L 278.30 175.50 L 278.10 175.50 L 276.20 179.40 L 270.50 186.80 L 267.80 188.90 L 271.30 188.40 L 277.80 188.40 L 277.80 180.10 Z M 290.50 194.10 L 284.40 194.10 L 284.40 204.80 L 277.80 204.80 L 277.80 194.10 L 261.20 194.10 L 261.20 190.10 L 278.60 166.20 L 284.40 166.20 L 284.40 188.40 L 290.50 188.40 L 290.50 194.10 Z" fill="#ffffff" fill-rule="evenodd" group-id="1,3,38" id="Fill-907" node-id="69" stroke="none" target-height="38.600006" target-width="29.299988" target-x="261.2" target-y="166.2"></path></g><g node-id="674"><path d="M 300.60 185.60 L 300.80 190.10 L 301.30 193.40 L 302.00 195.90 L 302.90 197.60 L 304.00 198.70 L 305.30 199.30 L 306.80 199.50 L 308.40 199.30 L 309.60 198.70 L 310.70 197.70 L 311.60 196.20 L 312.40 193.90 L 312.90 190.50 L 313.10 185.60 L 312.90 181.20 L 312.40 177.80 L 311.70 175.40 L 310.80 173.70 L 309.70 172.60 L 308.40 172.00 L 306.80 171.80 L 305.30 172.00 L 304.00 172.60 L 302.90 173.60 L 302.00 175.10 L 301.30 177.50 L 300.80 180.80 L 300.60 185.60 M 293.50 185.60 L 293.70 180.40 L 294.40 176.30 L 295.50 173.10 L 296.90 170.60 L 298.40 168.90 L 300.10 167.50 L 302.10 166.60 L 304.30 166.00 L 306.80 165.70 L 309.60 166.00 L 311.90 166.60 L 313.90 167.50 L 315.60 168.90 L 317.00 170.60 L 318.30 173.00 L 319.30 176.20 L 320.00 180.30 L 320.20 185.60 L 320.00 190.80 L 319.20 194.90 L 318.20 198.10 L 316.80 200.60 L 315.20 202.40 L 313.50 203.70 L 311.60 204.70 L 309.30 205.30 L 306.80 205.50 L 304.10 205.30 L 301.80 204.70 L 299.80 203.60 L 298.10 202.20 L 296.70 200.40 L 295.40 197.80 L 294.40 194.50 L 293.70 190.50 L 293.50 185.60" fill="#ffffff" fill-rule="evenodd" group-id="1,3,39" id="Fill-908" node-id="70" stroke="none" target-height="39.800003" target-width="26.700012" target-x="293.5" target-y="165.7"></path></g><g node-id="675"><path d="M 340.10 180.10 L 340.60 175.50 L 340.30 175.50 L 338.50 179.40 L 332.80 186.80 L 330.00 188.90 L 333.50 188.40 L 340.10 188.40 L 340.10 180.10 Z M 352.70 194.10 L 346.70 194.10 L 346.70 204.80 L 340.10 204.80 L 340.10 194.10 L 323.40 194.10 L 323.40 190.10 L 340.80 166.20 L 346.70 166.20 L 346.70 188.40 L 352.70 188.40 L 352.70 194.10 Z" fill="#ffffff" fill-rule="evenodd" group-id="1,3,40" id="Fill-909" node-id="71" stroke="none" target-height="38.600006" target-width="29.300018" target-x="323.4" target-y="166.2"></path></g><g node-id="676"><path d="M 401.30 327.70 L 400.90 334.20 L 400.10 340.20 L 398.70 345.80 L 396.80 351.00 L 394.30 356.00 L 391.40 360.70 L 388.00 365.00 L 384.20 369.00 L 380.00 372.60 L 375.40 376.00 L 370.40 379.00 L 365.00 381.80 L 353.60 386.20 L 347.30 387.90 L 340.70 389.40 L 331.80 390.80 L 322.50 391.60 L 312.70 391.90 L 302.90 391.60 L 293.60 390.80 L 284.70 389.40 L 278.10 387.90 L 271.80 386.20 L 260.40 381.80 L 255.00 379.00 L 250.00 376.00 L 245.40 372.60 L 241.20 369.00 L 237.40 365.00 L 234.00 360.70 L 231.10 356.00 L 228.60 351.00 L 226.70 345.80 L 225.30 340.20 L 224.40 334.20 L 224.10 327.70 L 224.40 320.40 L 225.10 313.10 L 226.20 305.80 L 227.90 298.50 L 230.10 291.40 L 232.90 284.40 L 238.00 274.40 L 244.40 265.10 L 248.10 260.80 L 252.10 256.80 L 256.50 253.00 L 261.30 249.40 L 266.30 246.30 L 271.70 243.50 L 277.60 241.00 L 283.90 238.90 L 290.30 237.30 L 297.20 236.10 L 304.60 235.30 L 312.70 235.10 L 321.30 235.30 L 329.20 236.10 L 336.30 237.30 L 342.90 238.90 L 349.50 241.10 L 355.50 243.50 L 360.90 246.30 L 365.90 249.40 L 370.70 253.00 L 375.00 256.80 L 379.00 260.80 L 382.50 265.10 L 388.60 274.40 L 393.40 284.40 L 395.90 291.40 L 397.90 298.50 L 399.40 305.80 L 400.50 313.10 L 401.10 320.40 L 401.30 327.70" fill="#f6f6ee" fill-rule="evenodd" group-id="1,3,41" id="Fill-910" node-id="72" stroke="none" target-height="156.79999" target-width="177.19998" target-x="224.1" target-y="235.1"></path></g><g node-id="677"><path d="M 401.50 332.60 L 401.20 339.10 L 400.30 345.20 L 398.90 350.80 L 397.00 356.00 L 394.50 361.00 L 391.60 365.60 L 388.20 369.90 L 384.40 374.00 L 380.20 377.60 L 375.70 380.90 L 370.70 384.00 L 365.20 386.70 L 353.80 391.10 L 347.50 392.90 L 340.90 394.40 L 332.10 395.80 L 322.70 396.60 L 312.90 396.90 L 303.10 396.60 L 293.80 395.80 L 284.90 394.40 L 278.30 392.90 L 272.10 391.10 L 260.60 386.70 L 255.20 384.00 L 250.20 380.90 L 245.60 377.60 L 241.50 374.00 L 237.60 369.90 L 234.30 365.60 L 231.30 361.00 L 228.90 356.00 L 227.00 350.80 L 225.60 345.20 L 224.70 339.10 L 224.40 332.60 L 224.60 325.40 L 225.30 318.10 L 226.50 310.70 L 228.20 303.50 L 230.40 296.40 L 233.10 289.40 L 238.30 279.40 L 244.70 270.10 L 248.40 265.80 L 252.40 261.70 L 256.80 257.90 L 261.60 254.40 L 266.60 251.30 L 272.00 248.50 L 277.80 246.00 L 284.20 243.90 L 290.50 242.30 L 297.40 241.10 L 304.90 240.30 L 312.90 240.00 L 321.50 240.30 L 329.40 241.10 L 336.60 242.30 L 343.10 243.90 L 349.70 246.00 L 355.70 248.50 L 361.20 251.30 L 366.20 254.40 L 370.90 258.00 L 375.30 261.80 L 379.20 265.80 L 382.80 270.10 L 388.90 279.40 L 393.70 289.40 L 396.20 296.30 L 398.20 303.50 L 399.70 310.70 L 400.70 318.10 L 401.30 325.40 L 401.50 332.60" fill="#e6e5ce" fill-rule="evenodd" group-id="1,3,42" id="Fill-911" node-id="73" stroke="none" target-height="156.9" target-width="177.1" target-x="224.4" target-y="240"></path></g><g node-id="678"><path d="M 224.40 332.60 L 224.70 339.10 L 225.60 345.20 L 227.00 350.80 L 228.90 356.00 L 231.30 361.00 L 234.30 365.60 L 237.60 369.90 L 241.50 374.00 L 245.60 377.60 L 250.20 380.90 L 255.20 384.00 L 260.60 386.70 L 272.10 391.10 L 278.30 392.90 L 284.90 394.40 L 293.80 395.80 L 303.10 396.60 L 312.90 396.90 L 322.70 396.60 L 332.10 395.80 L 340.90 394.40 L 347.50 392.90 L 353.80 391.10 L 365.20 386.70 L 370.70 384.00 L 375.70 380.90 L 380.20 377.60 L 384.40 374.00 L 388.20 369.90 L 391.60 365.60 L 394.50 361.00 L 397.00 356.00 L 398.90 350.80 L 400.30 345.20 L 401.20 339.10 L 401.50 332.60 L 401.20 322.90 L 224.80 322.90 L 224.40 332.60" fill="#d5d4b9" fill-rule="evenodd" group-id="1,3,43" id="Fill-912" node-id="74" stroke="none" target-height="74" target-width="177.1" target-x="224.4" target-y="322.9"></path></g><g node-id="679"><path d="M 242.30 330.30 L 242.60 335.40 L 243.30 340.10 L 244.40 344.40 L 245.90 348.50 L 247.70 352.20 L 250.00 355.80 L 252.60 359.10 L 255.50 362.20 L 258.80 365.10 L 262.40 367.70 L 267.20 370.50 L 272.40 373.00 L 278.00 375.20 L 284.20 376.90 L 290.30 378.20 L 296.80 379.20 L 303.60 379.80 L 310.80 380.00 L 318.00 379.80 L 324.80 379.20 L 331.30 378.20 L 337.40 376.90 L 343.60 375.20 L 349.20 373.00 L 354.40 370.50 L 359.20 367.70 L 362.80 365.10 L 366.10 362.20 L 369.00 359.10 L 371.60 355.80 L 373.90 352.20 L 375.70 348.50 L 377.20 344.40 L 378.30 340.10 L 379.00 335.40 L 379.20 330.30 L 379.00 322.80 L 242.70 322.80 L 242.30 330.30" fill="#bebc97" fill-rule="evenodd" group-id="1,3,44" id="Fill-913" node-id="75" stroke="none" target-height="57.200012" target-width="136.90001" target-x="242.3" target-y="322.8"></path></g><g node-id="680"><path d="M 304.40 466.10 L 315.70 466.10 L 315.70 390.10 L 304.40 390.10 Z" fill="#639bb0" fill-rule="evenodd" group-id="1,3,45" id="Fill-914" node-id="76" stroke="none" target-height="76" target-width="11.300018" target-x="304.4" target-y="390.1"></path></g><g node-id="681"><path d="M 304.40 399.90 L 315.70 399.90 L 315.70 390.10 L 304.40 390.10 Z" fill="#d5d4b9" fill-rule="evenodd" group-id="1,3,46" id="Fill-915" node-id="77" stroke="none" target-height="9.799988" target-width="11.300018" target-x="304.4" target-y="390.1"></path></g><g node-id="682"><path d="M 350.60 477.50 L 346.30 477.50 L 346.10 473.20 L 345.50 471.70 L 344.50 470.50 L 343.20 469.50 L 341.80 468.90 L 340.10 468.70 L 280.00 468.70 L 278.30 468.90 L 276.90 469.50 L 275.60 470.50 L 274.60 471.70 L 274.00 473.20 L 273.80 477.50 L 269.50 477.50 L 269.70 473.00 L 270.20 471.20 L 272.00 468.10 L 274.70 465.80 L 276.30 465.10 L 280.00 464.40 L 342.00 464.60 L 345.40 465.80 L 346.90 466.90 L 349.20 469.60 L 350.40 473.00 L 350.60 477.50 Z" fill="#609aaf" fill-rule="evenodd" group-id="1,3,47" id="Fill-916" node-id="78" stroke="none" target-height="13.100006" target-width="81.100006" target-x="269.5" target-y="464.4"></path></g><g node-id="683"><path d="M 290.60 477.10 L 290.40 479.00 L 289.70 480.50 L 288.60 481.90 L 287.30 483.00 L 285.70 483.60 L 283.90 483.90 L 282.00 483.60 L 280.50 483.00 L 279.10 481.90 L 278.00 480.50 L 277.40 479.00 L 277.10 477.10 L 277.40 475.30 L 278.00 473.80 L 279.10 472.40 L 280.50 471.30 L 282.00 470.70 L 283.90 470.40 L 285.70 470.70 L 287.30 471.30 L 288.60 472.40 L 289.70 473.80 L 290.40 475.30 L 290.60 477.10" fill="#035e80" fill-rule="evenodd" group-id="1,3,48" id="Fill-917" node-id="79" stroke="none" target-height="13.5" target-width="13.5" target-x="277.1" target-y="470.4"></path></g><g node-id="684"><path d="M 287.40 477.10 L 287.10 478.50 L 286.40 479.60 L 285.30 480.40 L 283.90 480.70 L 282.50 480.40 L 281.40 479.60 L 280.60 478.50 L 280.30 477.10 L 280.60 475.80 L 281.40 474.60 L 282.50 473.90 L 283.90 473.60 L 285.30 473.90 L 286.40 474.60 L 287.10 475.80 L 287.40 477.10" fill="#184657" fill-rule="evenodd" group-id="1,3,49" id="Fill-918" node-id="80" stroke="none" target-height="7.100006" target-width="7.100006" target-x="280.3" target-y="473.6"></path></g><g node-id="685"><path d="M 343.30 477.10 L 343.00 479.00 L 342.40 480.50 L 341.30 481.90 L 339.90 483.00 L 338.40 483.60 L 336.50 483.90 L 334.70 483.60 L 333.10 483.00 L 331.70 481.90 L 330.70 480.50 L 330.00 479.00 L 329.80 477.10 L 330.00 475.30 L 330.70 473.80 L 331.70 472.40 L 333.10 471.30 L 334.70 470.70 L 336.50 470.40 L 338.40 470.70 L 339.90 471.30 L 341.30 472.40 L 342.40 473.80 L 343.00 475.30 L 343.30 477.10" fill="#035e80" fill-rule="evenodd" group-id="1,3,50" id="Fill-919" node-id="81" stroke="none" target-height="13.5" target-width="13.5" target-x="329.8" target-y="470.4"></path></g><g node-id="686"><path d="M 340.10 477.10 L 339.80 478.50 L 339.00 479.60 L 337.90 480.40 L 336.50 480.70 L 335.10 480.40 L 334.00 479.60 L 333.30 478.50 L 333.00 477.10 L 333.30 475.80 L 334.00 474.60 L 335.10 473.90 L 336.50 473.60 L 337.90 473.90 L 339.00 474.60 L 339.80 475.80 L 340.10 477.10" fill="#184657" fill-rule="evenodd" group-id="1,3,51" id="Fill-920" node-id="82" stroke="none" target-height="7.100006" target-width="7.100006" target-x="333" target-y="473.6"></path></g><g node-id="687"><g node-id="715"><path d="M 330.40 474.40 L 342.70 474.40 L 341.70 472.80 L 340.20 471.50 L 338.50 470.70 L 336.50 470.40 L 334.60 470.70 L 332.80 471.50 L 331.40 472.80 L 330.40 474.40" fill="#cbc7ff" fill-rule="evenodd" group-id="1,3,52,80" id="Fill-921" node-id="85" stroke="none" target-height="4" target-width="12.300018" target-x="330.4" target-y="470.4"></path><path d="M 277.70 474.40 L 290.00 474.40 L 289.00 472.80 L 287.60 471.50 L 285.80 470.70 L 283.90 470.40 L 281.90 470.70 L 280.20 471.50 L 278.70 472.80 L 277.70 474.40" fill="#cbc7ff" fill-rule="evenodd" group-id="1,3,52,80" id="Fill-922" node-id="86" stroke="none" target-height="4" target-width="12.299988" target-x="277.7" target-y="470.4"></path><path d="M 330.40 474.40 L 342.70 474.40 L 341.70 472.80 L 340.20 471.50 L 338.50 470.70 L 336.50 470.40 L 334.60 470.70 L 332.80 471.50 L 331.40 472.80 L 330.40 474.40" fill="#41b093" fill-rule="evenodd" group-id="1,3,52,80" id="Fill-923" node-id="87" stroke="none" target-height="4" target-width="12.300018" target-x="330.4" target-y="470.4"></path><path d="M 277.70 474.40 L 290.00 474.40 L 289.00 472.80 L 287.60 471.50 L 285.80 470.70 L 283.90 470.40 L 281.90 470.70 L 280.20 471.50 L 278.70 472.80 L 277.70 474.40" fill="#41b093" fill-rule="evenodd" group-id="1,3,52,80" id="Fill-924" node-id="88" stroke="none" target-height="4" target-width="12.299988" target-x="277.7" target-y="470.4"></path></g></g><g node-id="688"><path d="M 315.00 437.30 L 305.10 437.30 L 303.60 437.00 L 302.40 436.20 L 301.60 435.00 L 301.30 433.60 L 301.30 422.20 L 301.60 420.80 L 302.40 419.60 L 303.60 418.80 L 305.10 418.50 L 315.00 418.50 L 316.50 418.80 L 317.70 419.60 L 318.50 420.80 L 318.80 422.20 L 318.80 433.60 L 318.50 435.00 L 317.70 436.20 L 316.50 437.00 L 315.00 437.30" fill="#639bb0" fill-rule="evenodd" group-id="1,3,53" id="Fill-925" node-id="89" stroke="none" target-height="18.799988" target-width="17.5" target-x="301.3" target-y="418.5"></path></g><path d="M 341.70 373.50 L 274.40 373.50 L 268.40 372.80 L 264.90 371.40 L 262.10 368.90 L 261.00 367.10 L 259.50 362.40 L 259.10 355.60 L 260.00 349.50 L 262.70 342.10 L 264.80 337.90 L 269.30 330.70 L 274.60 323.90 L 343.10 323.90 L 349.70 335.00 L 353.60 343.20 L 355.20 347.40 L 356.30 351.70 L 356.80 355.40 L 356.70 359.50 L 356.10 362.80 L 355.10 365.60 L 353.50 368.10 L 351.70 370.00 L 349.50 371.50 L 347.10 372.60 L 344.50 373.30 L 341.70 373.50" fill="#0d232b" fill-rule="evenodd" group-id="1,3,54" id="Fill-926" node-id="90" stroke="none" target-height="49.600006" target-width="97.69998" target-x="259.1" target-y="323.9"></path></g><g node-id="639"><path d="M 193.60 473.60 L 183.20 473.60 L 211.60 318.10 L 222.00 318.10 Z" fill="#d6b88d" fill-rule="evenodd" group-id="1,4" id="Fill-1057" node-id="92" stroke="none" target-height="155.5" target-width="38.800003" target-x="183.2" target-y="318.1"></path><path d="M 207.40 341.30 L 217.80 341.30 L 222.00 318.10 L 211.60 318.10 Z" fill="#b89f7a" fill-rule="evenodd" group-id="1,4" id="Fill-1059" node-id="93" stroke="none" target-height="23.199982" target-width="14.600006" target-x="207.4" target-y="318.1"></path><path d="M 462.70 473.60 L 473.10 473.60 L 444.70 318.10 L 434.20 318.10 Z" fill="#d6b88d" fill-rule="evenodd" group-id="1,4" id="Fill-1061" node-id="94" stroke="none" target-height="155.5" target-width="38.899994" target-x="434.2" target-y="318.1"></path><path d="M 448.90 341.30 L 438.50 341.30 L 434.20 318.10 L 444.70 318.10 Z" fill="#b89f7a" fill-rule="evenodd" group-id="1,4" id="Fill-1063" node-id="95" stroke="none" target-height="23.199982" target-width="14.699982" target-x="434.2" target-y="318.1"></path><g node-id="691"><path d="M 176.40 318.70 L 476.20 318.70 L 476.20 307.40 L 176.40 307.40 Z" fill="#d6b88d" fill-rule="evenodd" group-id="1,4,56" id="Fill-1065" node-id="99" stroke="none" target-height="11.300018" target-width="299.80002" target-x="176.4" target-y="307.4"></path></g><g node-id="692"><path d="M 299.60 269.10 L 287.40 270.60 L 274.00 273.50 L 260.80 277.60 L 254.60 280.20 L 249.30 283.00 L 243.20 287.30 L 241.00 289.50 L 239.20 292.00 L 238.00 294.50 L 237.40 297.00 L 237.40 300.30 L 237.80 302.60 L 238.50 304.20 L 239.60 305.50 L 241.10 306.50 L 242.90 307.10 L 245.90 307.50 L 278.10 307.70 L 318.50 307.30 L 299.60 269.10 Z" fill="#e85f5b" fill-rule="evenodd" group-id="1,4,57" id="Fill-1067" node-id="100" stroke="none" target-height="38.600006" target-width="81.100006" target-x="237.4" target-y="269.1"></path></g><g node-id="693"><path d="M 331.30 268.60 L 344.10 270.10 L 359.10 273.10 L 374.20 277.50 L 381.30 280.20 L 387.40 283.10 L 394.50 287.60 L 398.60 291.70 L 399.80 293.60 L 400.80 297.30 L 400.60 300.10 L 400.10 302.10 L 399.10 303.70 L 397.80 305.10 L 396.10 306.10 L 394.00 306.90 L 390.60 307.50 L 386.30 307.80 L 357.20 307.40 L 320.10 307.30 L 331.30 268.60 Z" fill="#e85f5b" fill-rule="evenodd" group-id="1,4,58" id="Fill-1068" node-id="101" stroke="none" target-height="39.19998" target-width="80.69998" target-x="320.1" target-y="268.6"></path></g><g node-id="694"><path d="M 242.60 304.70 L 241.30 303.50 L 239.70 300.80 L 239.40 297.70 L 240.20 294.60 L 242.20 291.80 L 244.00 290.20 L 246.30 288.90 L 249.00 287.90 L 251.90 287.20 L 258.20 287.00 L 266.70 288.20 L 287.90 292.10 L 307.20 296.30 L 306.80 306.50 L 253.40 307.40 L 246.60 306.50 L 242.60 304.70" fill="#ffd6cb" fill-rule="evenodd" group-id="1,4,59" id="Fill-1069" node-id="102" stroke="none" target-height="20.399994" target-width="67.80002" target-x="239.4" target-y="287"></path></g><g node-id="695"><path d="M 293.70 340.70 L 296.50 341.20 L 301.40 342.80 L 303.60 344.10 L 305.50 345.70 L 307.10 347.70 L 308.30 349.90 L 309.10 352.60 L 309.50 355.90 L 309.30 359.20 L 308.60 363.10 L 307.20 367.90 L 305.60 372.00 L 302.70 377.90 L 295.40 391.80 L 276.50 424.30 L 255.60 458.70 L 255.10 460.00 L 255.20 461.40 L 258.60 472.00 L 228.90 472.00 L 231.60 463.80 L 234.60 457.10 L 280.40 366.80 L 273.40 361.40 L 271.40 359.20 L 271.10 356.10 L 271.40 353.80 L 273.20 349.20 L 276.00 345.50 L 277.80 344.00 L 280.10 342.70 L 282.80 341.50 L 285.80 340.80 L 289.30 340.60 L 293.70 340.70" fill="#ffd6cb" fill-rule="evenodd" group-id="1,4,60" id="Fill-1070" node-id="103" stroke="none" target-height="131.4" target-width="80.600006" target-x="228.9" target-y="340.6"></path></g><g node-id="696"><path d="M 246.20 462.30 L 241.00 463.50 L 235.80 465.70 L 233.60 465.70 L 231.30 464.70 L 228.90 472.00 L 258.60 472.00 L 256.20 464.60 L 253.50 463.20 L 251.40 462.60 L 246.20 462.30" fill="#e85f5b" fill-rule="evenodd" group-id="1,4,61" id="Fill-1072" node-id="104" stroke="none" target-height="9.700012" target-width="29.700012" target-x="228.9" target-y="462.3"></path></g><g node-id="697"><path d="M 256.60 474.10 L 231.00 474.10 L 229.50 473.50 L 229.00 471.90 L 258.60 471.90 L 258.00 473.50 L 256.60 474.10" fill="#035e80" fill-rule="evenodd" group-id="1,4,62" id="Fill-1073" node-id="105" stroke="none" target-height="2.2000122" target-width="29.600006" target-x="229" target-y="471.9"></path></g><g node-id="698"><path d="M 327.20 340.70 L 324.40 341.20 L 319.40 342.80 L 317.20 344.10 L 315.30 345.70 L 313.70 347.70 L 312.50 349.90 L 311.70 352.60 L 311.40 355.90 L 311.50 359.20 L 312.20 363.10 L 313.60 367.90 L 315.30 372.00 L 318.10 377.90 L 325.50 391.80 L 344.30 424.30 L 365.30 458.70 L 365.80 460.00 L 365.60 461.40 L 362.30 472.00 L 392.00 472.00 L 389.20 463.80 L 386.30 457.10 L 340.50 366.80 L 347.50 361.40 L 349.50 359.20 L 349.80 356.10 L 349.40 353.80 L 347.60 349.20 L 344.90 345.50 L 343.00 344.00 L 340.80 342.70 L 338.00 341.50 L 335.10 340.80 L 331.50 340.60 L 327.20 340.70" fill="#ffd6cb" fill-rule="evenodd" group-id="1,4,63" id="Fill-1074" node-id="106" stroke="none" target-height="131.4" target-width="80.600006" target-x="311.4" target-y="340.6"></path></g><g node-id="699"><path d="M 374.60 462.30 L 379.90 463.50 L 385.00 465.70 L 387.30 465.70 L 389.60 464.70 L 392.00 472.00 L 362.30 472.00 L 364.60 464.60 L 367.40 463.20 L 369.40 462.60 L 374.60 462.30" fill="#e85f5b" fill-rule="evenodd" group-id="1,4,64" id="Fill-1076" node-id="107" stroke="none" target-height="9.700012" target-width="29.700012" target-x="362.3" target-y="462.3"></path></g><g node-id="700"><path d="M 364.30 474.10 L 389.90 474.10 L 391.30 473.50 L 391.90 471.90 L 362.30 471.90 L 362.90 473.50 L 364.30 474.10" fill="#035e80" fill-rule="evenodd" group-id="1,4,65" id="Fill-1077" node-id="108" stroke="none" target-height="2.2000122" target-width="29.600006" target-x="362.3" target-y="471.9"></path></g><g node-id="701"><path d="M 396.10 304.70 L 397.50 303.50 L 399.00 300.80 L 399.40 297.70 L 398.60 294.60 L 396.60 291.80 L 394.70 290.20 L 392.50 288.90 L 389.70 287.90 L 386.80 287.20 L 380.50 287.00 L 372.10 288.20 L 350.80 292.10 L 331.50 296.30 L 332.00 306.50 L 385.30 307.40 L 392.20 306.50 L 396.10 304.70" fill="#ffd6cb" fill-rule="evenodd" group-id="1,4,66" id="Fill-1078" node-id="109" stroke="none" target-height="20.399994" target-width="67.899994" target-x="331.5" target-y="287"></path></g><g node-id="702"><path d="M 296.80 273.10 L 290.80 279.00 L 289.10 281.10 L 287.80 283.30 L 286.80 285.80 L 285.90 289.80 L 285.90 292.20 L 283.70 293.70 L 282.40 295.10 L 281.40 297.00 L 280.60 299.70 L 280.20 302.40 L 280.40 306.00 L 280.90 307.80 L 358.20 307.30 L 358.70 304.80 L 358.60 302.90 L 358.00 300.80 L 356.60 298.10 L 354.70 295.60 L 353.10 294.20 L 351.40 293.20 L 349.10 292.60 L 347.50 291.70 L 344.40 289.50 L 343.00 287.90 L 340.40 282.50 L 334.00 272.70 L 296.80 273.10 Z" fill="#353535" fill-opacity="0.29366" fill-rule="evenodd" group-id="1,4,67" id="Fill-1079" node-id="110" stroke="none" target-height="35.099976" target-width="78.5" target-x="280.2" target-y="272.7"></path></g><g node-id="703"><path d="M 347.40 338.10 L 345.70 336.90 L 343.50 334.40 L 342.60 331.10 L 342.60 328.90 L 343.30 325.20 L 346.10 315.70 L 346.50 312.60 L 346.40 309.80 L 345.80 307.50 L 344.80 305.40 L 339.00 297.60 L 337.80 295.40 L 336.90 292.40 L 337.30 289.10 L 340.50 283.40 L 341.10 281.60 L 341.00 277.60 L 339.70 274.00 L 337.30 271.10 L 334.80 269.40 L 334.10 268.30 L 332.60 264.10 L 331.80 262.80 L 330.50 261.60 L 328.60 260.60 L 326.60 260.00 L 322.10 259.90 L 319.90 260.50 L 316.30 259.40 L 312.70 259.00 L 309.40 259.30 L 306.20 260.10 L 303.10 261.50 L 300.40 263.30 L 298.00 265.50 L 296.10 268.20 L 294.60 271.10 L 293.60 274.50 L 293.20 277.80 L 293.50 281.00 L 294.20 284.10 L 292.20 288.80 L 291.30 293.40 L 292.80 299.10 L 292.90 300.70 L 292.60 302.60 L 291.70 304.60 L 288.80 309.70 L 287.70 312.90 L 287.80 315.00 L 288.40 317.30 L 291.60 324.90 L 291.80 328.50 L 291.20 331.00 L 290.00 333.30 L 285.40 338.50 L 284.50 340.10 L 283.20 343.90 L 283.10 345.90 L 283.70 349.90 L 284.70 351.60 L 290.00 357.10 L 290.80 358.40 L 291.20 360.00 L 290.90 363.60 L 287.40 371.50 L 286.90 373.60 L 286.90 375.60 L 287.90 379.20 L 288.80 380.70 L 291.30 383.10 L 294.40 384.40 L 296.00 384.60 L 305.50 383.40 L 308.00 383.50 L 310.80 384.20 L 312.40 385.80 L 312.80 387.10 L 312.60 390.90 L 313.00 392.70 L 313.90 394.50 L 316.60 397.50 L 320.40 399.70 L 324.60 400.60 L 326.80 400.50 L 328.80 400.00 L 330.80 399.00 L 332.60 397.70 L 334.70 395.00 L 335.40 392.60 L 335.70 390.20 L 335.50 387.60 L 333.50 377.80 L 333.90 374.90 L 334.90 373.00 L 336.60 371.10 L 347.20 361.50 L 349.20 359.20 L 350.70 356.90 L 352.40 352.20 L 352.70 347.70 L 351.80 343.60 L 349.90 340.30 L 347.40 338.10" fill="#434242" fill-rule="evenodd" group-id="1,4,68" id="Fill-1080" node-id="111" stroke="none" target-height="141.6" target-width="69.600006" target-x="283.1" target-y="259"></path></g><g node-id="704"><path d="M 306.60 318.10 L 306.10 319.80 L 306.30 322.30 L 307.20 323.90 L 312.80 330.10 L 314.10 333.60 L 314.30 335.60 L 313.80 338.40 L 312.90 340.10 L 309.00 344.70 L 308.00 346.50 L 307.40 348.90 L 307.40 350.60 L 308.00 353.00 L 311.30 357.10 L 312.10 358.80 L 312.40 361.70 L 312.10 363.90 L 311.20 366.70 L 310.00 368.80 L 305.40 374.50 L 303.90 376.90 L 302.40 380.90 L 301.90 383.80 L 297.60 384.50 L 294.40 384.40 L 292.80 383.90 L 290.00 382.00 L 287.90 379.20 L 286.90 375.60 L 286.90 373.60 L 287.40 371.50 L 290.90 363.60 L 291.20 360.00 L 290.80 358.40 L 290.00 357.10 L 284.70 351.60 L 283.70 349.90 L 283.10 345.90 L 283.20 343.90 L 284.50 340.10 L 285.40 338.50 L 290.00 333.30 L 291.20 331.00 L 291.80 328.50 L 291.60 324.90 L 288.40 317.30 L 287.80 315.00 L 287.70 312.90 L 288.80 309.70 L 291.80 304.60 L 293.10 300.90 L 293.00 299.30 L 291.60 294.10 L 291.60 292.20 L 292.50 288.40 L 293.70 285.40 L 294.20 284.10 L 300.40 288.70 L 305.20 293.00 L 307.20 295.30 L 308.50 297.20 L 309.60 301.10 L 309.70 307.00 L 309.00 310.80 L 306.60 318.10 Z" fill="#353535" fill-rule="evenodd" group-id="1,4,69" id="Fill-1081" node-id="112" stroke="none" target-height="100.399994" target-width="31.199982" target-x="283.1" target-y="284.1"></path></g><g node-id="705"><path d="M 468.30 302.50 L 398.90 302.50 L 405.50 262.30 L 406.10 260.60 L 407.20 259.30 L 408.70 258.40 L 410.50 258.10 L 471.50 258.10 L 473.00 258.40 L 474.10 259.30 L 474.80 260.60 L 474.90 262.10 L 468.30 302.50 Z" fill="#cf5551" fill-rule="evenodd" group-id="1,4,70" id="Fill-1082" node-id="113" stroke="none" target-height="44.399994" target-width="76" target-x="398.9" target-y="258.1"></path></g><g node-id="706"><path d="M 469.50 302.50 L 400.10 302.50 L 406.70 262.30 L 407.30 260.60 L 408.40 259.30 L 409.90 258.40 L 411.70 258.10 L 472.70 258.10 L 474.20 258.40 L 475.40 259.30 L 476.10 260.60 L 476.20 262.10 L 469.50 302.50 Z" fill="#e85f5b" fill-rule="evenodd" group-id="1,4,71" id="Fill-1083" node-id="114" stroke="none" target-height="44.399994" target-width="76.100006" target-x="400.1" target-y="258.1"></path></g><g node-id="707"><path d="M 382.00 307.70 L 469.50 307.70 L 469.50 302.50 L 387.00 302.50 L 385.60 302.70 L 383.40 303.90 L 382.20 306.10 L 382.00 307.70 Z" fill="#698792" fill-rule="evenodd" group-id="1,4,72" id="Fill-1084" node-id="115" stroke="none" target-height="5.200012" target-width="87.5" target-x="382" target-y="302.5"></path></g><path d="M 446.90 281.00 L 446.70 282.60 L 446.10 284.00 L 445.20 285.30 L 443.90 286.20 L 442.50 286.80 L 440.90 287.00 L 439.20 286.80 L 437.80 286.20 L 435.60 284.00 L 435.00 282.60 L 434.80 281.00 L 435.00 279.30 L 435.60 277.90 L 437.80 275.70 L 439.20 275.20 L 440.90 274.90 L 442.50 275.20 L 443.90 275.70 L 445.20 276.70 L 446.10 277.90 L 446.70 279.30 L 446.90 281.00" fill="#f0836d" fill-rule="evenodd" group-id="1,4,73" id="Fill-1085" node-id="116" stroke="none" target-height="12.100006" target-width="12.100006" target-x="434.8" target-y="274.9"></path></g><g node-id="640"><path d="M 220.60 127.30 L 218.40 126.70 L 216.90 125.20 L 216.30 123.00 L 216.90 120.80 L 218.40 119.20 L 221.00 118.60 L 221.90 116.90 L 223.30 115.50 L 225.10 114.60 L 227.20 114.30 L 229.20 114.60 L 231.00 115.50 L 232.40 116.90 L 233.30 118.70 L 235.80 119.10 L 237.80 116.90 L 239.20 116.30 L 240.70 116.10 L 243.60 116.90 L 245.60 118.90 L 246.10 120.20 L 246.40 121.70 L 245.60 124.50 L 243.60 126.60 L 240.70 127.30 L 220.60 127.30 Z" fill="#ffffff" fill-rule="evenodd" group-id="1,5" id="Fill-1098" node-id="118" stroke="none" target-height="13" target-width="30.09999" target-x="216.3" target-y="114.3"></path><path d="M 136.90 134.90 L 139.60 134.20 L 141.50 132.20 L 142.30 129.50 L 141.50 126.80 L 139.60 124.80 L 138.30 124.30 L 136.90 124.10 L 135.00 124.40 L 134.30 122.70 L 132.10 120.00 L 130.50 119.00 L 128.80 118.40 L 126.90 118.20 L 125.10 118.40 L 121.90 119.90 L 119.60 122.50 L 118.90 124.10 L 117.50 123.50 L 116.00 123.30 L 114.40 123.50 L 111.80 125.00 L 110.40 127.50 L 110.10 129.10 L 110.90 132.00 L 113.00 134.10 L 116.00 134.90 L 136.90 134.90 Z" fill="#ffffff" fill-rule="evenodd" group-id="1,5" id="Fill-1100" node-id="119" stroke="none" target-height="16.699997" target-width="32.200005" target-x="110.1" target-y="118.2"></path><path d="M 452.70 134.00 L 455.00 133.70 L 457.00 132.80 L 458.80 131.50 L 460.20 129.70 L 461.00 127.70 L 461.30 125.40 L 461.00 123.00 L 460.20 121.00 L 458.80 119.30 L 457.00 117.90 L 455.00 117.00 L 452.70 116.70 L 449.70 117.20 L 448.70 114.50 L 447.10 112.10 L 445.00 110.10 L 442.60 108.60 L 440.80 107.90 L 436.80 107.30 L 433.80 107.60 L 431.20 108.50 L 428.80 109.90 L 426.70 111.80 L 425.10 114.10 L 424.00 116.70 L 420.90 115.50 L 417.50 115.50 L 414.50 116.60 L 412.60 118.10 L 411.20 120.00 L 410.00 123.00 L 410.00 126.40 L 411.20 129.40 L 412.60 131.30 L 414.50 132.70 L 417.50 133.80 L 452.70 134.00 Z" fill="#ffffff" fill-rule="evenodd" group-id="1,5" id="Fill-1102" node-id="120" stroke="none" target-height="26.699997" target-width="51.299988" target-x="410" target-y="107.3"></path></g></g></svg>